<?xml version="1.0" encoding="UTF-8"?><svg id="Layer_1" xmlns="http://www.w3.org/2000/svg" viewBox="0 0 412.07 412.07"><defs><style>.cls-1{fill:#f0d911;}.cls-2{fill:#fff;}</style></defs><circle class="cls-1" cx="206.04" cy="206.04" r="206.04"/><path class="cls-2" d="M194.13,214.36l.04-.5,8.25-2.63c.79-.25,1.64-.43,2.56-.54.91-.11,1.79-.07,2.62.09.84.16,1.6.48,2.29.95.68.47,1.2,1.16,1.54,2.05.29.75.36,1.46.23,2.13-.14.67-.4,1.29-.8,1.84-.4.56-.87,1.07-1.44,1.53-.56.45-1.12.86-1.67,1.21s-1.06.64-1.53.85c-.48.22-.81.38-1.01.47l-.03.11c.38-.07.87-.13,1.49-.19.61-.06,1.24-.02,1.89.1.64.12,1.25.36,1.82.72.57.36,1,.91,1.28,1.66.2.52.35,1.04.44,1.56.1.52.19,1.02.27,1.53.08.5.16,1,.25,1.51.09.5.24,1.02.44,1.54.22.58.57.99,1.04,1.23.48.23.97.27,1.49.1.18-.06.36-.14.54-.22.18-.09.31-.17.38-.25l.29.36c-.1.06-.31.16-.62.31-.31.14-.64.27-.98.38-.61.19-1.2.32-1.74.36-.56.05-1.08,0-1.56-.13-.48-.14-.92-.39-1.29-.74-.38-.37-.69-.85-.93-1.48-.12-.31-.24-.73-.35-1.26-.11-.52-.22-1.08-.32-1.68-.12-.57-.24-1.14-.37-1.71-.13-.56-.27-1.04-.42-1.44-.15-.38-.35-.72-.6-1.02-.25-.31-.6-.52-1.04-.67-.44-.14-.98-.19-1.65-.14-.67.05-1.49.23-2.46.54l-1.39.44-.1,12.78,3.9-1.24v.49s-10.43,3.32-10.43,3.32v-.49s3.47-1.1,3.47-1.1l.11-23.99-3.91,1.24ZM203.32,222.14c.9-.29,1.68-.61,2.33-.98.64-.37,1.12-.73,1.41-1.08.25-.28.48-.63.71-1.03.23-.4.39-.85.51-1.37.11-.52.14-1.09.1-1.72-.04-.62-.2-1.33-.5-2.1-.44-1.16-1.16-1.91-2.15-2.23-.99-.33-2.05-.31-3.18.05l-1.43.45-.08,10.74,2.27-.72Z"/><path class="cls-2" d="M217.04,222.06c.15-1.27.51-2.45,1.08-3.51.57-1.07,1.3-2,2.19-2.8.89-.79,1.82-1.35,2.79-1.66.89-.28,1.72-.36,2.5-.23.78.12,1.49.38,2.13.76.62.38,1.16.86,1.61,1.42.44.56.77,1.13,1,1.72.46,1.2.61,2.43.45,3.68-.15,1.25-.51,2.43-1.05,3.51-.55,1.09-1.26,2.03-2.14,2.83-.87.81-1.79,1.36-2.74,1.66-.81.26-1.6.35-2.36.27-.76-.09-1.46-.3-2.11-.63-.65-.33-1.22-.78-1.71-1.33-.49-.56-.87-1.19-1.14-1.9-.48-1.25-.64-2.51-.5-3.78ZM222.19,228.96c.75.34,1.56.37,2.42.09.7-.22,1.28-.62,1.76-1.18.47-.57.83-1.24,1.09-2.02.27-.77.45-1.59.54-2.47.1-.87.14-1.72.11-2.55-.03-.83-.1-1.61-.22-2.31-.12-.71-.25-1.27-.42-1.69-.38-1-.92-1.71-1.61-2.15-.68-.43-1.6-.47-2.76-.1-.66.21-1.21.58-1.67,1.13-.45.54-.81,1.18-1.08,1.9-.27.73-.45,1.52-.56,2.37-.11.85-.15,1.7-.12,2.54.03.84.12,1.64.25,2.4.14.76.31,1.41.52,1.95.41,1.06.98,1.76,1.73,2.09Z"/><path class="cls-2" d="M231.45,214.58c-.04-.5-.01-1,.09-1.5.1-.5.29-.95.58-1.37.28-.42.73-.73,1.34-.93.72-.23,1.4-.25,2.01-.06.62.19,1.17.5,1.66.93.48.43.9.92,1.26,1.49.36.57.63,1.1.83,1.63.52,1.37.89,2.58,1.1,3.62.21,1.04.36,1.92.46,2.64l.07-.02,1.9-10.27c.06-.37.13-.74.2-1.11.07-.38.19-.73.35-1.04.16-.32.37-.61.64-.87.27-.26.62-.47,1.04-.6.55-.17.97-.17,1.28.01.31.18.52.43.64.74.15.4.14.76-.03,1.1-.18.33-.49.57-.94.72-.43.14-.72.02-.86-.36-.09-.23-.09-.43-.01-.57.08-.16.08-.33.01-.51-.12-.31-.33-.39-.63-.25-.27.11-.49.38-.67.83-.19.45-.37,1.15-.56,2.12l-2.24,12.28-.68,3.99c-.13.8-.29,1.56-.47,2.32-.18.76-.42,1.46-.71,2.08s-.64,1.17-1.05,1.63c-.41.46-.9.78-1.47.96-.86.28-1.63.3-2.31.09-.68-.21-1.15-.65-1.4-1.32-.21-.54-.17-.95.1-1.24.27-.29.6-.49.98-.62.29-.09.56-.09.8-.02.23.07.39.23.49.49.07.19.11.34.11.44,0,.1,0,.21-.01.32-.01.11-.01.22,0,.35.01.12.05.29.14.5.09.23.27.38.54.46.27.07.58.06.92-.05.63-.2,1.15-.79,1.55-1.75.41-.97.67-2.15.78-3.55s.05-2.95-.18-4.64c-.23-1.69-.66-3.35-1.29-5-.62-1.62-1.17-2.93-1.65-3.92-.48-.99-.91-1.75-1.28-2.27-.36-.52-.67-.86-.94-1-.25-.14-.48-.17-.69-.11-.41.13-.7.38-.89.75-.18.37-.31.8-.36,1.26s-.06.92-.03,1.37c.03.45.07.83.11,1.12l-.52.03c-.04-.36-.08-.79-.11-1.29Z"/><path class="cls-2" d="M257.96,211.56c0,.35.02.67.04.99.01.31.09.64.22.99.27.71.69,1.28,1.26,1.7.57.43,1.22.72,1.94.89.72.17,1.48.23,2.28.18.8-.05,1.56-.18,2.32-.42,1-.32,1.84-.73,2.53-1.24.69-.52,1.22-1.09,1.59-1.73.37-.64.57-1.32.6-2.05.04-.72-.08-1.46-.37-2.21-.29-.77-.74-1.39-1.34-1.86-.6-.48-1.34-.89-2.21-1.24l-3.19-1.26c-1.43-.55-2.62-1.17-3.59-1.85-.96-.69-1.66-1.59-2.09-2.72-.34-.87-.42-1.74-.27-2.61.15-.87.49-1.68,1.01-2.43s1.2-1.42,2.03-2.01c.83-.59,1.74-1.04,2.74-1.36.7-.22,1.34-.37,1.92-.42.58-.06,1.11-.09,1.61-.08.5,0,.96,0,1.37,0,.42,0,.82-.07,1.2-.19.34-.11.57-.26.7-.47s.19-.45.21-.73l.55-.07-.06,6.71-.41.13c-.02-.18-.05-.44-.08-.76-.04-.32-.14-.72-.32-1.17-.29-.75-.67-1.34-1.14-1.77-.47-.44-.99-.74-1.57-.92-.58-.18-1.19-.25-1.85-.2s-1.31.17-1.97.38c-.82.26-1.52.61-2.12,1.03-.6.42-1.07.9-1.43,1.4s-.57,1.05-.65,1.64c-.08.59,0,1.18.22,1.79.34.89.91,1.58,1.7,2.06.8.49,1.64.9,2.53,1.24l3.98,1.54c1.07.41,2.05.93,2.95,1.57.9.65,1.54,1.49,1.93,2.5.3.8.41,1.65.32,2.6-.08.94-.39,1.86-.92,2.76-.54.9-1.31,1.74-2.32,2.54-1.02.79-2.31,1.43-3.87,1.93-.81.26-1.56.42-2.23.5-.67.08-1.29.11-1.87.11-.57,0-1.1,0-1.6,0-.49.02-.95.1-1.38.23-.3.09-.53.28-.7.56-.17.27-.24.54-.18.81l-.51.05v-6.94s.45-.14.45-.14Z"/><path class="cls-2" d="M275.87,198.22l-.03-.48,5.4-1.72.04,11.86c0,.35.01.7.02,1.06.01.36.08.68.19.98.09.25.25.44.48.56.23.12.5.14.82.04.36-.11.67-.34.94-.68.26-.34.48-.71.66-1.11.18-.39.31-.78.39-1.16.08-.38.14-.67.15-.89l.47.03c-.03.2-.07.49-.14.9-.06.4-.19.83-.4,1.28-.21.45-.51.89-.91,1.29-.41.41-.95.72-1.63.94-.75.24-1.39.29-1.94.15-.55-.14-.95-.55-1.21-1.21-.14-.35-.22-.77-.24-1.24-.03-.46-.04-.9-.04-1.3v-10.26s-3.03.97-3.03.97ZM278.07,187.59c.2-.38.52-.64.97-.78.45-.14.89-.12,1.3.06.41.18.7.48.86.9s.14.81-.06,1.2c-.2.37-.52.64-.98.78-.45.15-.89.12-1.3-.05-.41-.19-.7-.49-.86-.9-.16-.42-.14-.82.06-1.19Z"/><path class="cls-2" d="M290.73,189.56l-.05,3.45,3.7-1.18.03.48-3.7,1.18-.07,11.16c0,.35.02.71.03,1.08.01.37.09.72.22,1.05.12.31.29.53.54.67.24.13.56.14.94.02.41-.13.75-.37,1.02-.71.28-.34.5-.72.68-1.11.18-.39.31-.78.39-1.16.08-.38.14-.67.16-.89l.47.03c-.03.2-.08.49-.15.9-.07.41-.21.84-.42,1.29-.21.45-.52.89-.93,1.3s-.97.73-1.67.95c-.86.28-1.58.29-2.16.04-.58-.25-.97-.64-1.18-1.18-.16-.42-.25-.92-.29-1.5-.03-.58-.04-1.12-.03-1.62l.08-9.55-3.06.97-.03-.48,3.06-.97.05-3.45,2.38-.76Z"/><path class="cls-2" d="M283.8,56.44c-11.19.88-13.87,1.91-23.94-2.39-4.16-1.78-8.84-3.8-14.07-6.04-5.23-2.24-11.46-4.25-18.68-6.04-7.23-1.79-16.23-2.69-26.99-2.69-14.76,0-28.37,2.39-40.82,7.16-12.45,4.78-23.14,11.34-32.06,19.7-8.92,8.36-15.84,18.29-20.76,29.77-4.92,11.49-7.38,23.95-7.38,37.38,0,20.59,6.38,37.01,19.14,49.25,12.76,12.24,31.6,22.09,56.51,29.55l.92.27,111.37-35.48c.95-.3.78-1.71-.22-1.73-31.69-.74-194.92-7.14-154.39-95.03,14.39-31.21,60.31-34.58,67.69-34.57,69.44.15,85.34,72.08,87.18,82.82h5.53c4.83-.25.96-72.71-9.04-71.92ZM287.82,107.03s-9.04-32.17-22.12-43.5c0,0,11.2,2.59,14.08.94,0,0,9.02,18.64,8.04,42.56Z"/><path class="cls-2" d="M316.14,229.54c-2.99-4.91-6.29-9.34-9.89-13.29l-106.04,36.99c-1.22.42-.83,2.38.43,2.13,41.82-8.16,115.78-5.66,85.29,62.13-8.02,17.83-38.92,63.85-138.84,36.93-7.79-2.1-13.84-9.4-20.29-16.56-6.46-7.16-12.38-16.26-17.76-27.31-5.39-11.04-9.77-24.62-13.15-40.74h-5.07s-14.01,67.78,11.3,89.09c1.89,1.59,4.84-2.69,9.45-2.69,5.23,0,11.37,1.19,18.45,3.58,7.07,2.39,13.68,4.48,19.84,6.27,5.22,1.49,9.99,2.61,14.3,3.36,4.3.74,8.6,1.41,12.91,2.01,4.3.6,8.92.97,13.84,1.12,4.92.14,10.61.22,17.07.22,18.14,0,34.44-2.91,48.89-8.73,14.45-5.82,26.75-13.58,36.9-23.28,10.15-9.7,17.91-20.89,23.29-33.58,5.38-12.68,8.07-26.04,8.07-40.07,0-15.22-3-27.75-8.99-37.61ZM103.85,341.9s-9.02-18.64-8.04-42.56c0,0,9.04,32.17,22.12,43.5,0,0-11.2-2.59-14.08-.94Z"/></svg>