<?xml version="1.0" encoding="UTF-8"?><svg id="Layer_1" xmlns="http://www.w3.org/2000/svg" viewBox="0 0 739.19 94.81"><defs><style>.cls-1{fill:none;}.cls-2{fill:#0b0b0b;}.cls-3{fill:#fff;}</style></defs><path class="cls-3" d="M18.88,45.31H0v47.19h18.88v-32.69h15.44l16.81,32.69h21.38l-19-35.62c2.58-1.04,4.9-2.42,6.94-4.12,2.04-1.71,3.76-3.68,5.16-5.91.31-.5.6-1.01.88-1.53H18.88Z"/><path class="cls-3" d="M185.38,47.38c0,4.71-.56,8.96-1.69,12.75-1.12,3.79-2.74,7.03-4.84,9.72-2.1,2.69-4.64,4.76-7.59,6.22-2.96,1.46-6.27,2.19-9.94,2.19s-7.05-.73-10.03-2.19c-2.98-1.46-5.51-3.53-7.59-6.22-2.08-2.69-3.69-5.93-4.81-9.72-1.12-3.79-1.69-8.04-1.69-12.75,0-.7.04-1.38.06-2.06h-19.34c-.02.68-.04,1.37-.04,2.06,0,7.33,1.01,13.93,3.03,19.78,2.02,5.85,4.91,10.82,8.66,14.91,3.75,4.08,8.3,7.23,13.66,9.44,5.35,2.21,11.38,3.31,18.09,3.31s12.68-1.1,18.03-3.31c5.35-2.21,9.91-5.35,13.66-9.44,3.75-4.08,6.62-9.05,8.62-14.91,2-5.85,3-12.45,3-19.78,0-.7-.02-1.38-.04-2.06h-19.28c.03.68.06,1.36.06,2.06Z"/><polygon class="cls-3" points="280.5 59.31 280.5 92.5 299.38 92.5 299.38 59.31 307.08 45.31 272.78 45.31 280.5 59.31"/><path class="cls-3" d="M500.69,53.94l11.75,2.5c2.75.58,5.11,1.24,7.09,1.97,1.98.73,3.59,1.55,4.84,2.47,1.25.92,2.17,1.96,2.75,3.12.58,1.17.88,2.46.88,3.88,0,1.71-.42,3.27-1.25,4.69-.83,1.42-1.99,2.64-3.47,3.66-1.48,1.02-3.24,1.81-5.28,2.38-2.04.56-4.29.84-6.75.84-2.67,0-5.1-.28-7.31-.84-2.21-.56-4.14-1.36-5.78-2.41-1.65-1.04-2.97-2.3-3.97-3.78-1-1.48-1.6-3.13-1.81-4.97h-18.25c.17,4.21,1.13,8,2.91,11.38,1.77,3.38,4.22,6.25,7.34,8.62s6.88,4.2,11.25,5.47,9.25,1.91,14.62,1.91c5.67,0,10.75-.68,15.25-2.03s8.33-3.29,11.5-5.81c3.17-2.52,5.59-5.59,7.28-9.22s2.53-7.71,2.53-12.25c0-3.5-.5-6.62-1.5-9.38s-2.55-5.17-4.66-7.25c-1.33-1.31-2.91-2.49-4.7-3.56h-53.25c4.08,4.09,10.06,6.97,17.98,8.62Z"/><rect class="cls-3" x="597.63" y="45.31" width="18.88" height="47.19"/><rect class="cls-3" x="693.25" y="45.31" width="18.88" height="47.19"/><path class="cls-1" d="M178.84,24.88c-2.1-2.67-4.64-4.72-7.59-6.16-2.96-1.44-6.27-2.16-9.94-2.16s-6.98.72-9.94,2.16c-2.96,1.44-5.49,3.49-7.59,6.16-2.1,2.67-3.73,5.91-4.88,9.72-.97,3.24-1.51,6.83-1.65,10.72h48.06c-.14-3.89-.67-7.48-1.62-10.72-1.12-3.81-2.74-7.05-4.84-9.72Z"/><path class="cls-1" d="M50.5,31.5c0-2.12-.35-4.05-1.06-5.78-.71-1.73-1.72-3.2-3.03-4.41-1.31-1.21-2.92-2.13-4.81-2.78-1.9-.65-4.01-.97-6.34-.97h-16.38v27.75h16.56c4.79,0,8.5-1.21,11.12-3.62,2.62-2.42,3.94-5.81,3.94-10.19Z"/><path class="cls-2" d="M18.88,17.56h16.38c2.33,0,4.45.32,6.34.97,1.9.65,3.5,1.57,4.81,2.78,1.31,1.21,2.32,2.68,3.03,4.41.71,1.73,1.06,3.66,1.06,5.78,0,4.38-1.31,7.77-3.94,10.19-2.62,2.42-6.33,3.62-11.12,3.62h31.04c.97-1.8,1.74-3.73,2.31-5.78.73-2.65,1.09-5.41,1.09-8.28,0-4.5-.74-8.53-2.22-12.09-1.48-3.56-3.59-6.59-6.34-9.09s-6.1-4.42-10.06-5.75c-3.96-1.33-8.42-2-13.38-2H0v43h18.88v-27.75Z"/><path class="cls-2" d="M138.91,34.59c1.15-3.81,2.77-7.05,4.88-9.72,2.1-2.67,4.63-4.72,7.59-6.16,2.96-1.44,6.27-2.16,9.94-2.16s6.98.72,9.94,2.16c2.96,1.44,5.49,3.49,7.59,6.16,2.1,2.67,3.72,5.91,4.84,9.72.96,3.24,1.48,6.83,1.62,10.72h19.28c-.17-6.47-1.17-12.36-3-17.66-2.02-5.85-4.91-10.82-8.66-14.91-3.75-4.08-8.29-7.23-13.62-9.44-5.33-2.21-11.33-3.31-18-3.31s-12.62,1.09-17.97,3.28c-5.35,2.19-9.92,5.33-13.69,9.44-3.77,4.1-6.68,9.08-8.72,14.94-1.85,5.3-2.85,11.19-3.03,17.66h19.34c.15-3.89.68-7.48,1.65-10.72Z"/><polygon class="cls-2" points="330.75 2.31 310.31 2.31 290.5 40.06 289.38 40.06 269.5 2.31 249.06 2.31 272.78 45.31 307.08 45.31 330.75 2.31"/><path class="cls-2" d="M532.59,43.53c-3.27-1.48-7.18-2.7-11.72-3.66l-10.88-2.31c-5.29-1.12-9.09-2.54-11.41-4.25-2.31-1.71-3.47-3.96-3.47-6.75,0-1.71.38-3.26,1.12-4.66.75-1.4,1.81-2.58,3.19-3.56,1.38-.98,3.02-1.73,4.94-2.25,1.92-.52,4.06-.78,6.44-.78s4.41.28,6.34.84,3.62,1.37,5.06,2.41c1.44,1.04,2.61,2.29,3.53,3.75.92,1.46,1.48,3.08,1.69,4.88h17.75c-.12-4-1.06-7.67-2.81-11-1.75-3.33-4.15-6.2-7.19-8.59-3.04-2.4-6.65-4.26-10.81-5.59-4.17-1.33-8.73-2-13.69-2-5.21,0-9.94.67-14.19,2-4.25,1.33-7.88,3.24-10.88,5.72-3,2.48-5.32,5.45-6.97,8.91-1.65,3.46-2.47,7.31-2.47,11.56,0,7.08,2.18,12.78,6.52,17.12h53.25c-1.05-.63-2.15-1.23-3.37-1.78Z"/><rect class="cls-2" x="597.63" y="2.31" width="18.88" height="43"/><polygon class="cls-2" points="739.19 18.44 739.19 2.31 666.19 2.31 666.19 18.44 693.25 18.44 693.25 45.31 712.13 45.31 712.13 18.44 739.19 18.44"/></svg>