<?xml version="1.0" encoding="UTF-8"?>
<svg id="Layer_1" xmlns="http://www.w3.org/2000/svg" version="1.1" viewBox="0 0 1017.2 948.6">
  <!-- Generator: Adobe Illustrator 29.1.0, SVG Export Plug-In . SVG Version: 2.1.0 Build 142)  -->
  <defs>
    <style>
      .st0 {
        fill: none;
      }

      .st1 {
        font-family: Galvji-Bold, Galvji;
        font-size: 123.3px;
        font-weight: 700;
      }

      .st1, .st2 {
        isolation: isolate;
      }

      .st1, .st3 {
        fill: #ff6c00;
      }

      .st4 {
        fill: #fdfefe;
      }
    </style>
  </defs>
  <g class="st2">
    <g class="st2">
      <text class="st1" transform="translate(800.1 261.8) rotate(90)"><tspan x="0" y="0">Facsbook</tspan></text>
    </g>
  </g>
  <g class="st2">
    <g class="st2">
      <text class="st1" transform="translate(161.9 123.6)"><tspan x="0" y="0">Follow My</tspan></text>
    </g>
  </g>
  <path class="st0" d="M43.1,867c-19.4-19.1-32.7-43.5-38.2-70.1-2.8-15.8-4.3-31.9-4.5-48-.4-7.6-.4-15.2-.4-22.9v182.7h173.9c-12.7-.5-25.3-1-38-1.8-34.8-1.4-67.9-15.6-92.8-39.9Z"/>
  <path class="st0" d="M707,302.1c3.7,17.4,5.6,35,5.8,52.8.2,3,.3,6.1.4,9.1v-168.5h-169.1c16.7.2,33.3,1.4,49.9,3.6,55.1,8.3,99.7,49,113,103Z"/>
  <path class="st0" d="M107.2,201.6c16.4-3.7,33.2-5.6,50-5.6,5.6-.3,11.1-.5,16.6-.5H0v160.9c.4-13.8,1.6-27.7,3.7-41.3,10.9-59.1,45.3-97.3,103.5-113.5Z"/>
  <path class="st0" d="M711.5,772.6c-1.3,34.9-15.6,68.1-40.1,93-18.4,18.7-41.9,31.7-67.5,37.4-16.6,3.2-33.5,4.9-50.4,5.1-3.7.2-7.4.3-11.1.5h0c0,0,170.9,0,170.9,0v-171.6c-.5,11.9-1,23.6-1.7,35.5Z"/>
  <path class="st3" d="M553.5,908.1c16.9-.2,33.8-1.9,50.4-5.1,25.6-5.7,49.1-18.7,67.5-37.4,24.5-24.9,38.8-58.1,40.1-93,.7-11.9,1.2-23.6,1.7-35.5v-373.1c-.1-3-.2-6.1-.4-9.1-.2-17.8-2.1-35.4-5.8-52.8-13.3-54-57.9-94.7-113-103-16.6-2.2-33.3-3.4-49.9-3.6H173.8c-5.5,0-11.1.2-16.6.5-16.8,0-33.6,1.9-50,5.6-58.2,16.2-92.6,54.4-103.5,113.5-2.1,13.7-3.3,27.5-3.7,41.3v369.6c0,7.7,0,15.3.4,22.9.2,16.1,1.7,32.2,4.5,48,5.5,26.6,18.8,51,38.2,70.1,24.9,24.3,58,38.5,92.8,39.9,12.7.8,25.3,1.3,38,1.8h122v-236.1h-89.1v.2-100.6h89.1c1.1-29.3-1.5-59.6,0-88.8s16.2-76.4,47-99.8c47.3-35.8,108.1-23.6,163.6-25.8v94.5c-.6.2-.9-.8-1.2-.8h-53.8c-2.6,0-10.2,2.1-13.1,3-21.5,6.9-32,25.4-33.4,47.2-1.4,21.8,1.2,47.3,0,70.3h96.8l-15.7,100.6h-81.1v236.1h137.4c3.7-.3,7.4-.4,11.1-.6Z"/>
  <rect class="st4" x="295.9" y="908.7" width="109.1" height="2.1"/>
</svg>