<?xml version="1.0" encoding="UTF-8"?>
<svg id="Layer_1" xmlns="http://www.w3.org/2000/svg" version="1.1" viewBox="0 0 930.6 907.7">
  <!-- Generator: Adobe Illustrator 29.1.0, SVG Export Plug-In . SVG Version: 2.1.0 Build 142)  -->
  <defs>
    <style>
      .st0 {
        font-family: Galvji-Bold, Galvji;
        font-size: 123.3px;
        font-weight: 700;
      }

      .st0, .st1 {
        isolation: isolate;
      }

      .st0, .st2 {
        fill: #ff6c00;
      }
    </style>
  </defs>
  <g>
    <path class="st2" d="M247.1,183c6.5-.2,13,.1,19.5,0s13,0,19.5,0h136.5c6.5,0,13-.1,19.5,0s13-.2,19.5,0c19.4.5,38.9,2,58.4,2.6s3.5-.1,5.2,0,3.8,2.9,6.5,0c1.3.4,2.5,1,3.9,1.3,7.2,1.8,17.4,4.7,24.6,5.2s1.8.1,2.6,0l2.6,1.3c.4.4,6.3.8,7.8,1.3,13.2,4.5,32.1,11.5,44.1,18.2s4.5,2.7,6.5,3.9c3.2,1.9,9.8,6.7,13,9.1s9.3,7.1,13,10.4,4.6,4.6,6.5,6.5c4,4,8.1,8.6,11.7,13,3.6,4.4,5.1,5.9,6.5,7.8,2,2.8,6,8.8,7.8,11.7,6.6,10.9,14,26.9,18.2,38.9,1.9,5.6,5.2,15.3,6.5,20.8,2.9,12.3,5.3,27.9,6.5,40.2.3,3-.2,6.1,0,9.1,1.2,13.8,1,27.7,2.6,41.5v5.2c-.3,6.4,0,13,0,19.5v206.7c-.4,13.7-1.5,27.9-2.6,41.5v5.2c-.3,4-.8,7.7-1.3,11.7-1.5,12.2-4.5,24.2-6.5,36.3s-1,.4-1.3,2.6,0,1.7,0,2.6c-6.4,14-10.7,30.7-18.2,44.1-6.1,10.9-19.8,28.6-28.5,37.6l-3.9,3.9c-8.6,8.2-26.1,21.6-36.3,27.2s-29.9,11.8-44.1,18.2h-2.6l-2.6,1.3c-9.4,0-24,5-34.6,6.3-7.6.9-15,.9-22.5,1.5-12.5.9-25.1,1.3-37.6,2.6-3.7-.4-7.9,0-11.7,0-6.5-.2-13,0-19.5,0h-175.5c-6.4,0-13-.3-19.5,0h-2.6c-13.2-1.7-26.8-1.7-40.2-2.6s-23.1-.9-33.7-2.6-14.4-2.7-19.5-3.9-15.1-4.6-20.8-6.5c-12.8-4.4-27.4-11.1-38.9-18.2-9.7-6-24.2-17.9-32.4-25.9-1.9-1.8-4.9-4.7-6.5-6.5-3.3-3.7-7.4-8.9-10.4-13s-7.2-9.8-9.1-13-2.8-4.6-3.9-6.5c-6-10.9-13.2-28.3-16.9-40.2s-1.7-8-2.6-11.7-1.3-2.5-1.3-2.6c-.2-.8.2-1.8,0-2.6-1.8-8-4.1-16.6-5.2-24.6s0-3.5,0-5.2.4-3.7-1.3-5.2v-5.2c.3-7.5-1.1-14.4-1.3-20.8s.1-6.9,0-10.4c-.3-9-1.1-18.3-1.3-27.2-.1-6.5,0-13,0-19.5v-39c-.2-19.9,0-39.8,0-59.7s0-12.1,0-18.2v-78c0-6.5,1.4-12.6,1.3-19.5,0-3.8.4-8.1,0-11.7l2.6-32.4c1.7-4.6.6-10.1,1.3-14.3s2.7-13,3.9-18.2,2.8-9.2,3.9-13,.9-1.2,1.3-2.6.7-3.5,1.3-5.2.9-1.5,1.3-2.6c2-5.5,5.5-10.7,5.2-16.9.8,0,1.6.3,2.3-.2,6.1-13.6,14.2-27.1,23.6-38.7,1.6-2,3.6-4.7,5.2-6.5,3-3.3,9.6-10,13-13s5.6-4.8,7.8-6.5c9.7-7.7,26.4-18.1,37.6-23.4,4.7-2.2,11.8-4.7,16.9-6.5,5.1-1.8,2-1.1,2.6-1.3,31.8-10.6,62.8-12.6,96-14.3,6.9-.3,13.8-1.1,20.8-1.3h-.2ZM235.4,249.1c-2.5-.2-5.2,0-7.8,0-8.1-.2-14.5.8-22.1,1.3s-7.9.9-11.7,1.3-.9,0-1.3,0c-1.3.1-2.6-.2-3.9,0-4.1.5-9.4,0-13,2.6-1.3,0-2.6-.1-3.9,0-6.9.6-17,5.4-23.4,7.8-34,12.6-52.4,28.9-67.5,62.3-.4.8-.9,1.6-1.3,2.6s-.8,2.7-1.3,3.9c-2.5,6.6-7.6,17.7-7.8,24.6s0,1.7,0,2.6c-2.4,4-2.7,9.7-2.6,14.3s0,1.7,0,2.6c-1.7.6-1.2,2.5-1.3,3.9,0,3,.2,6.1,0,9.1-.5,7.8-1,15.4-1.3,23.4s0,3.5,0,5.2c-.4,11.1-1.1,22.4-1.3,33.7s0,13,0,19.5v191.7l2.6,33c-.2,2.8,0,6.3,0,9.1.6,13.3,5.2,26.3,9.1,38.9,2.2,7,3.2,12.4,6.5,19.5s4.8,10.9,9.1,14.3c.4,2.4,1.5,3.4,2.6,5.2,5.3,8.6,11.2,12.3,18.2,18.2s.8.9,1.3,1.3c6.4,5.1,9.3,7.6,16.9,11.7,7.3,4,10.7,5,18.2,7.8s3.2,1.9,5.2,2.6c30.3,10,60.4,10.9,92.1,11.7,6.9.2,13.9,0,20.8,0h175.5c22.5-.3,45.1,0,67.5-2.6,3,.3,7.2,0,10.4,0,7.3-.3,13-2.6,19.5-3.9,16.8-3.4,24.8-5.2,40.2-13,24.5-12.3,39.6-27.4,51.9-51.9,7.7-15.4,9.6-23.4,13-40.2,1.3-6.4,3.7-12.2,3.9-19.5,0-2.9.2-6.3,0-9.1,1-13.7,2.2-27.7,2.6-41.5v-202.8c0-10.3,1-21.2-1.3-31.1.2-2.5,0-5.2,0-7.8.2-8.5-.7-15.3-1.3-23.4-.2-3,0-6.1,0-9.1s.4-3.3-1.3-3.9v-2.6c.2-8.1-2.3-12.4-3.9-19.5s-2.6-10.8-5.2-18.2-1-1.9-1.3-2.6c-2.8-7.4-3.8-10.9-7.8-18.2s-6.6-10.5-11.7-16.9-.7-2-1.3-2.6c-5-5.9-11.6-12.8-18.2-16.9-1.8-1.1-2.8-2.2-5.2-2.6-3.4-4.2-9.4-6.8-14.3-9.1-7.2-3.3-12.4-4.3-19.5-6.5-12.5-3.9-25.7-8.6-38.9-9.1s-5.3-.2-7.8,0c-1.3-2.2-4.9-1.3-7.1-1.3-11.6-.1-22.9-1-34.4-1.3s-6.1,0-9.1,0h-195c-10.3,0-21.2-1-31.1,1.3v.2h.1Z"/>
    <path class="st2" d="M561,308.8c25.6,6.5,37.9,39.3,25.9,62.3s-8.3,6.9-9.1,11.7c-4.3,1.7-7.3,4.6-11.7,6.5s-5,2.1-7.8,2.6c-5.8,1.1-13.6,1.1-19.5,0s-5.1-1.5-7.8-2.6-9.2-4.3-10.4-5.2-11.3-13.4-11.7-14.3c-.9-2.1-.9-8.9-2.6-11.7-.9-8.8-.8-17.6,2.6-25.9,4.1-10.3,16.5-20.6,27.2-23.4s16.7-2,24.6,0h.3Z"/>
    <path class="st2" d="M363.8,356.8c6.6.3,15.4,1.6,22.1,2.6,5,.7,12.3,1.5,16.9,2.6s14.3,4.5,19.5,6.5c10.2,3.9,27.2,12.2,36.3,18.2s6.5,4.6,9.1,6.5,9.3,7,11.7,9.1,8.6,8.4,11.7,11.7,5.6,6.4,7.8,9.1,6.2,6.8,7.8,9.1c5.7,8.1,12.7,26.3,18.2,32.4l1.3,2.6c0,1.1,1.2,2.1,1.3,2.6,3,13,9.2,25.7,11.7,38.9.8,4.5,2.2,13.6,2.6,18.2.6,6.6-.3,14,0,20.8v3.9c-1,1.6-1.2,3.3-1.3,5.2-.2,3.3.4,7.3,0,10.4-1.6,11.2-6.4,28.2-10.4,38.9-1.5,4-5,13.7-6.5,16.9s-3.8,5.3-5.2,7.8-4.7,8.9-6.5,11.7c-13.1,19.9-33.2,40-53.2,53.2s-8.3,4.6-11.7,6.5-6.6,4.6-7.8,5.2c-8,3.8-24.5,8.9-33.4,11.3-10.3,2.7-25.5,3.5-34,6.9h-7.8c-7.7,0-13.4-.6-20.8-1.3s-13-.4-18.2-1.3c-12.3-2.2-27.3-7-38.9-11.7-.7-.3-1.6-.9-2.6-1.3s-1.7-.9-2.6-1.3c-9.3-4.3-24.1-12.4-32.4-18.2s-6.5-5.7-9.1-7.8-6.3-5.1-9.1-7.8c-3.6-3.4-10-9.5-13-13s-4.7-6.6-6.5-9.1-6-7.6-7.8-10.4c-5.8-9.2-14.3-26.1-18.2-36.3s-5.3-14.3-6.5-19.5-1.8-12.8-2.6-18.2-2.3-14.5-2.6-20.8-.3-11.7,0-16.9,2.5-17.1,3.9-24.6.7-6.5,1.3-9.1.8-.8,1.3-2.6-.2-1.9,0-2.6c3.8-13.7,11.3-29.1,18.2-41.5,6.6-11.9,16.4-26.3,25.9-36.3s4.6-4.7,6.5-6.5c4.8-4.6,12.7-8.1,15.6-14.3.7,0,2,.2,2.6,0,1.3-.3,14.6-9.7,18.2-11.7,5.5-3.1,11-6.6,16.9-9.1,1-.4,1.8-1,2.6-1.3,6.1-2.5,15.7-5.9,22.1-7.8s1.8.1,2.6,0,2.2,0,2.6-1.3c2.9.3,6.1-.9,9.1-1.3,7.8-1.1,17.3-3.4,24.6-3.9,5.2-.3,11.6-.3,16.9,0h-.2,0ZM344.4,423c-16.7,1.7-25.2,4.1-40.2,11.7-23.6,11.9-41.3,29.6-53.2,53.2-7.6,15-10,23.5-11.7,40.2s-1.2,2.1-1.4,4.4c-.4,6.3-.6,15.6,1.4,21.6-.2,1.5,0,3.6,0,5.2.3,6.4,3.1,16.5,6.5,22.1,0,2.5.7,3.3,1.3,5.2,2.9,9.9,7.6,14.5,13,22.1,5.4,7.6,1.7,3.7,5.2,7.8s6.7,6.7,10.4,10.4.7,3.2,3.2,5.2,5.1,2,5.9,2.6c15.1,11.4,21.4,15.5,40.2,20.8,8.2,2.3,10.6,3,19.5,3.9s16.5,2.9,24.6,0c4.8.6,8.5-.5,13-1.3,17.5-3.1,28.7-9.6,42.8-19.5s8.2-6,14.3-11.7,2.5-2.4,3.9-3.9c5.7-6,6.6-7,11.7-14.3,10.3-14.8,15.7-24.7,19.5-42.8s2.6-10.3,2.6-12.3v-24.6c0-5.7-3.6-14.7-5.2-20.1-5.4-18.8-9.3-25-20.8-40.2s-.8-3.7-2.6-5.9-4.7-2.7-5.2-3.2c-3.6-3.7-6.3-6.9-10.4-10.4s-5.1-3.3-7.8-5.2c-7.6-5.3-12.2-10.1-22.1-13-1.9-.6-2.7-1.3-5.2-1.3-14.4-7.1-34.1-8.9-50-7.8-1.7.1-2.9,1.3-3.1,1.3v-.2h0Z"/>
  </g>
  <g class="st1">
    <g class="st1">
      <g class="st1">
        <text class="st0" transform="translate(784.2 215) rotate(90)"><tspan x="0" y="0">Instagram</tspan></text>
      </g>
    </g>
  </g>
  <g class="st1">
    <g class="st1">
      <g class="st1">
        <text class="st0" transform="translate(153.8 130.8)"><tspan x="0" y="0">Follow My</tspan></text>
      </g>
    </g>
  </g>
</svg>