<?xml version="1.0" encoding="UTF-8"?><svg id="Layer_1" xmlns="http://www.w3.org/2000/svg" xmlns:xlink="http://www.w3.org/1999/xlink" viewBox="0 0 409.81 409.73"><defs><style>.cls-1{fill:none;}.cls-2{fill:#ff6c00;}.cls-3{fill:#fcfeff;}.cls-4{clip-path:url(#clippath);}</style><clipPath id="clippath"><rect class="cls-1" x=".09" y=".03" width="409.7" height="409.7"/></clipPath></defs><g class="cls-4"><g id="Group_5887"><path id="Path_2023" class="cls-2" d="M311.61,409.7c-.59,0-1.18-.06-1.77-.06H101.78c-.59,0-1.18.04-1.77.07-7.28-.28-14.55-.55-21.82-1.05-20-.79-38.99-8.96-53.32-22.93-11.16-10.95-18.79-24.98-21.93-40.29-1.62-9.1-2.49-18.32-2.61-27.56-.23-4.38-.23-8.76-.23-13.15V103.64c-.36-11.67.35-23.36,2.1-34.91C8.47,34.78,28.22,12.84,61.65,3.55c9.43-2.11,19.06-3.19,28.72-3.22C97.18-.05,103.99.03,110.81.03h195.57c11.67-.18,23.35.52,34.92,2.07,31.63,4.75,57.27,28.13,64.91,59.19,2.12,9.97,3.23,20.13,3.32,30.32.11,2.19.19,4.37.28,6.56,0,4.09-.06,8.17-.06,12.25v197.57c0,.59.04,1.18.06,1.77-.26,7.27-.58,14.55-1.05,21.82-.77,20.06-8.98,39.11-23.02,53.45-10.59,10.75-24.06,18.22-38.79,21.49-9.54,1.85-19.22,2.83-28.94,2.92-2.13.11-4.26.19-6.38.28M211.29,187.7v-2.21c0-6.52-.04-13.04.03-19.56,0-1.43-.3-1.91-1.83-1.9-14.34.06-28.68.06-43.03,0-1.58,0-1.97.42-1.97,1.98.04,53.46.04,106.92,0,160.38,0,1.56.37,1.97,1.95,1.96,15.23-.07,30.46-.07,45.7,0,1.61,0,2.05-.39,2.05-2.03-.06-28.09,0-56.19-.06-84.28-.04-3.74.46-7.47,1.46-11.07,2.34-10.88,10.57-19.54,21.33-22.42,5.1-1.39,10.41-1.81,15.66-1.22,11.98,1,21.93,9.66,24.58,21.39.89,4.17,1.26,8.43,1.11,12.69-.05,28.33-.04,56.66-.11,84.99,0,1.59.41,1.95,1.96,1.94,15.29-.06,30.58-.06,45.87,0,1.66,0,2.03-.44,2.03-2.05-.05-34.85-.06-69.7-.04-104.54,0-1.54-.08-3.08-.25-4.61-1.56-11.31-5.61-22.12-11.88-31.67-1.73-2.84-3.88-5.41-6.38-7.61-17.16-15.78-41.49-21.1-63.67-13.92-13.85,3.82-26.01,12.2-34.51,23.78M136.28,246.2c0-26.73.01-53.46.03-80.18,0-1.51-.29-2-1.92-2-15.7.07-31.41.07-47.11,0-1.49,0-1.86.41-1.86,1.88.04,53.52.04,107.03,0,160.55,0,1.7.58,1.88,2.03,1.88,15.59-.04,31.17-.04,46.76,0,1.72,0,2.13-.43,2.13-2.14-.04-26.66-.06-53.33-.06-79.99M81.84,110.41c-.09,16.09,12.88,29.21,28.98,29.3,16.09.09,29.21-12.88,29.3-28.98.09-16.09-12.88-29.21-28.98-29.3-.06,0-.12,0-.18,0-16.04-.05-29.07,12.92-29.12,28.95,0,0,0,.01,0,.02"/><path id="Path_2024" class="cls-3" d="M211.28,187.69c8.51-11.58,20.67-19.94,34.52-23.76,22.18-7.17,46.5-1.85,63.67,13.92,2.49,2.2,4.64,4.77,6.38,7.61,6.26,9.54,10.32,20.36,11.88,31.67.17,1.53.25,3.07.25,4.61,0,34.85.01,69.7.04,104.55,0,1.61-.39,2.05-2.03,2.05-15.29-.07-30.58-.07-45.87,0-1.56,0-1.97-.35-1.96-1.94.07-28.33.06-56.66.11-84.99.15-4.26-.22-8.52-1.11-12.69-2.64-11.73-12.59-20.39-24.57-21.39-5.25-.59-10.57-.17-15.66,1.22-10.75,2.88-18.99,11.54-21.33,22.42-1.01,3.6-1.5,7.33-1.46,11.07.03,28.09,0,56.19.06,84.28,0,1.66-.44,2.04-2.05,2.03-15.23-.06-30.46-.06-45.7,0-1.58,0-1.95-.4-1.95-1.96.04-53.46.04-106.92,0-160.38,0-1.56.39-1.99,1.97-1.98,14.34.06,28.68.06,43.03,0,1.53,0,1.85.48,1.83,1.9-.07,6.52-.03,13.04-.03,19.56l-.02,2.19Z"/><path id="Path_2025" class="cls-3" d="M136.3,246.2c0,26.67.01,53.34.04,80,0,1.71-.4,2.14-2.13,2.14-15.59-.07-31.17-.07-46.76,0-1.44,0-2.03-.18-2.03-1.88.06-53.52.06-107.03,0-160.55,0-1.47.37-1.88,1.86-1.88,15.7.06,31.41.06,47.11,0,1.63,0,1.92.49,1.92,2-.04,26.73-.06,53.46-.03,80.18"/><path id="Path_2026" class="cls-3" d="M81.84,110.41c.09-16.09,13.21-29.06,29.3-28.97,16.09.09,29.06,13.21,28.97,29.3-.09,16.09-13.21,29.06-29.3,28.97-.06,0-.12,0-.19,0-16.02-.12-28.91-13.21-28.79-29.23,0-.02,0-.05,0-.07"/></g></g></svg>