<?xml version="1.0" encoding="UTF-8"?>
<svg id="Layer_1" xmlns="http://www.w3.org/2000/svg" xmlns:xlink="http://www.w3.org/1999/xlink" version="1.1" viewBox="0 0 1017.2 948.6">
  <!-- Generator: Adobe Illustrator 29.1.0, SVG Export Plug-In . SVG Version: 2.1.0 Build 142)  -->
  <defs>
    <style>
      .st0 {
        fill: none;
      }

      .st1, .st2 {
        fill: #ff6c00;
      }

      .st3 {
        fill: #fcfeff;
      }

      .st2 {
        font-family: Galvji-Bold, Galvji;
        font-size: 123.3px;
        font-weight: 700;
      }

      .st4 {
        clip-path: url(#clippath);
      }
    </style>
    <clipPath id="clippath">
      <rect class="st0" y="195.5" width="713.2" height="713.2"/>
    </clipPath>
  </defs>
  <g class="st4">
    <g id="Group_5887">
      <path id="Path_2023" class="st1" d="M542.3,908.7c-1,0-2.1-.1-3.1-.1H177c-1,0-2.1,0-3.1.1-12.7-.5-25.3-1-38-1.8-34.8-1.4-67.9-15.6-92.8-39.9-19.4-19.1-32.7-43.5-38.2-70.1-2.8-15.8-4.3-31.9-4.5-48-.4-7.6-.4-15.2-.4-22.9v-350.1c-.6-20.3.6-40.7,3.7-60.8,10.9-59.1,45.3-97.3,103.5-113.5,16.4-3.7,33.2-5.6,50-5.6,11.9-.7,23.7-.5,35.6-.5h340.4c20.3-.3,40.6.9,60.8,3.6,55.1,8.3,99.7,49,113,103,3.7,17.4,5.6,35,5.8,52.8.2,3.8.3,7.6.5,11.4,0,7.1-.1,14.2-.1,21.3v343.9c0,1,0,2.1.1,3.1-.5,12.7-1,25.3-1.8,38-1.3,34.9-15.6,68.1-40.1,93-18.4,18.7-41.9,31.7-67.5,37.4-16.6,3.2-33.5,4.9-50.4,5.1-3.7.2-7.4.3-11.1.5M367.7,522.2v-3.8c0-11.3,0-22.7,0-34,0-2.5-.5-3.3-3.2-3.3-25,.1-49.9.1-74.9,0-2.8,0-3.4.7-3.4,3.4,0,93.1,0,186.1,0,279.2,0,2.7.6,3.4,3.4,3.4,26.5-.1,53-.1,79.6,0,2.8,0,3.6-.7,3.6-3.5-.1-48.9,0-97.8-.1-146.7,0-6.5.8-13,2.5-19.3,4.1-18.9,18.4-34,37.1-39,8.9-2.4,18.1-3.2,27.3-2.1,20.9,1.7,38.2,16.8,42.8,37.2,1.5,7.3,2.2,14.7,1.9,22.1,0,49.3,0,98.6-.2,147.9,0,2.8.7,3.4,3.4,3.4,26.6-.1,53.2-.1,79.8,0,2.9,0,3.5-.8,3.5-3.6,0-60.7-.1-121.3,0-182,0-2.7-.1-5.4-.4-8-2.7-19.7-9.8-38.5-20.7-55.1-3-4.9-6.8-9.4-11.1-13.2-29.9-27.5-72.2-36.7-110.8-24.2-24.1,6.6-45.3,21.2-60.1,41.4M237.1,624.1c0-46.5,0-93.1,0-139.6,0-2.6-.5-3.5-3.3-3.5-27.3.1-54.7.1-82,0-2.6,0-3.2.7-3.2,3.3,0,93.2,0,186.3,0,279.5,0,3,1,3.3,3.5,3.3,27.1,0,54.3,0,81.4,0,3,0,3.7-.7,3.7-3.7,0-46.4-.1-92.8-.1-139.2M142.3,387.7c-.2,28,22.4,50.8,50.4,51,28,.2,50.8-22.4,51-50.4.2-28-22.4-50.8-50.4-51h-.3c-27.9,0-50.6,22.5-50.7,50.4h0"/>
      <path id="Path_2024" class="st3" d="M367.6,522.2c14.8-20.2,36-34.7,60.1-41.4,38.6-12.5,80.9-3.2,110.8,24.2,4.3,3.8,8.1,8.3,11.1,13.2,10.9,16.6,18,35.4,20.7,55.1.3,2.7.4,5.3.4,8,0,60.7,0,121.3,0,182,0,2.8-.7,3.6-3.5,3.6-26.6-.1-53.2-.1-79.8,0-2.7,0-3.4-.6-3.4-3.4.1-49.3.1-98.6.2-147.9.3-7.4-.4-14.8-1.9-22.1-4.6-20.4-21.9-35.5-42.8-37.2-9.1-1-18.4-.3-27.3,2.1-18.7,5-33.1,20.1-37.1,39-1.8,6.3-2.6,12.8-2.5,19.3,0,48.9,0,97.8.1,146.7,0,2.9-.8,3.6-3.6,3.5-26.5-.1-53-.1-79.6,0-2.8,0-3.4-.7-3.4-3.4,0-93.1,0-186.1,0-279.2,0-2.7.7-3.5,3.4-3.4,25,.1,49.9.1,74.9,0,2.7,0,3.2.8,3.2,3.3-.1,11.3,0,22.7,0,34v3.8s0,0,0,0Z"/>
      <path id="Path_2025" class="st3" d="M237.1,624.1c0,46.4,0,92.9,0,139.3,0,3-.7,3.7-3.7,3.7-27.1-.1-54.3-.1-81.4,0-2.5,0-3.5-.3-3.5-3.3.1-93.2.1-186.3,0-279.5,0-2.6.6-3.3,3.2-3.3,27.3.1,54.7.1,82,0,2.8,0,3.3.9,3.3,3.5,0,46.5-.1,93.1,0,139.6"/>
      <path id="Path_2026" class="st3" d="M142.3,387.7c.2-28,23-50.6,51-50.4,28,.2,50.6,23,50.4,51-.2,28-23,50.6-51,50.4h-.3c-27.9-.2-50.3-23-50.1-50.9h0"/>
    </g>
  </g>
  <text class="st2" transform="translate(833.4 241.9) rotate(90)"><tspan x="0" y="0">My Linkin</tspan></text>
  <text class="st2" transform="translate(0 123.6)"><tspan x="0" y="0">Click to Follow </tspan></text>
</svg>