<?xml version="1.0" encoding="UTF-8"?>
<svg id="Layer_1" xmlns="http://www.w3.org/2000/svg" version="1.1" viewBox="0 0 930.6 907.7">
  <!-- Generator: Adobe Illustrator 29.3.1, SVG Export Plug-In . SVG Version: 2.1.0 Build 151)  -->
  <defs>
    <style>
      .st0 {
        fill: #fdfdfe;
      }

      .st1 {
        font-family: Galvji-Bold, Galvji;
        font-size: 123.3px;
        font-weight: 700;
      }

      .st1, .st2 {
        isolation: isolate;
      }

      .st1, .st3 {
        fill: #ff6c00;
      }
    </style>
  </defs>
  <g class="st2">
    <g class="st2">
      <g class="st2">
        <g class="st2">
          <text class="st1" transform="translate(784.2 215) rotate(90)"><tspan x="0" y="0">LinkedIn</tspan></text>
        </g>
      </g>
    </g>
  </g>
  <g class="st2">
    <g class="st2">
      <g class="st2">
        <g class="st2">
          <text class="st1" transform="translate(153.8 130.8)"><tspan x="0" y="0">Follow My</tspan></text>
        </g>
      </g>
    </g>
  </g>
  <g>
    <path class="st0" d="M641.3,215.3h46.7v46.7c-5.3-24.7-22-41.4-46.7-46.7Z"/>
    <path class="st3" d="M641.3,215.3c24.7,5.3,41.4,22,46.7,46.7v505.4c-5.6,21.5-19.7,38.5-41.7,44.1-171.1,2.4-343.1,2.4-514.2,0-19.8-4.9-35.3-20.5-40.3-40.3-2.4-171.1-2.4-343.1,0-514.2,4.3-16.8,16.3-31.1,32.4-37.6l12.8-4.1h504.3ZM289.7,344.8c0-35.1-28.5-63.6-63.6-63.6s-63.6,28.5-63.6,63.6,28.5,63.6,63.6,63.6,63.6-28.5,63.6-63.6ZM418.3,472.1v-25.1c0-6.7-9.7-11.7-15.7-12.3-15-1.4-55.6-1.9-70,.1-8.9,1.3-12.8,8.4-13.6,16.8v276.7c.2,11.7,5.3,18,17,19.2,15.9,1.6,48.2,1.4,64.2,0,9.6-.8,16.2-4.6,18.1-14.6,2.9-50.5-3.9-105.3,0-155.3,2.1-27.7,17.6-59.7,48.4-62.5,41.7-3.6,55.7,25.9,57.9,62.4,3,51.1-2.3,105.1,0,156.5,1.5,8.5,7.6,12.5,15.8,13.4,16.3,1.6,52.5,1.7,68.8,0,6.9-.7,12.9-3.6,15.2-10.5-.8-57.2,3-116.4.6-173.4-2.1-48.8-14.8-105.2-65.1-125.2-32.1-12.7-82.3-11.5-112.3,6.2-12.2,7.2-20.2,16.8-29.3,27.3ZM270.9,742.5c1.3-1.3,2.3-3.8,3.4-5.4l.3-291c-2-6.4-6.6-10.3-13.3-11.3-21.7-3-49.6,1.8-72,.2-6.3,2.1-11.7,7.5-12.6,14.3l.5,285.5c2.3,9.2,8.7,12,17.6,12.8,15.6,1.4,47.6,1.6,63,0,4.1-.4,10.1-2.1,13-5.1Z"/>
    <path class="st0" d="M137,215.3l-12.8,4.1c-16.1,6.5-28.1,20.8-32.4,37.6-2.4,171.1-2.4,343.1,0,514.2,4.9,19.7,20.5,35.3,40.3,40.3,171.1,2.4,343.1,2.4,514.2,0,22-5.5,36.1-22.5,41.7-44.1v46.7H89.2V215.3h47.9Z"/>
  </g>
</svg>