<?xml version="1.0" encoding="UTF-8"?>
<svg xmlns="http://www.w3.org/2000/svg" version="1.1" viewBox="0 0 412.1 412.1">
  <defs>
    <style>
      .cls-1 {
        fill: #ff6c00;
      }

      .cls-2 {
        fill: #fff;
      }
    </style>
  </defs>
  <!-- Generator: Adobe Illustrator 28.7.1, SVG Export Plug-In . SVG Version: 1.2.0 Build 142)  -->
  <g>
    <g id="Layer_1">
      <circle class="cls-1" cx="206" cy="206" r="206"/>
      <path class="cls-2" d="M194.1,214.4v-.5s8.3-2.6,8.3-2.6c.8-.2,1.6-.4,2.6-.5.9-.1,1.8,0,2.6,0,.8.2,1.6.5,2.3.9.7.5,1.2,1.2,1.5,2.1.3.8.4,1.5.2,2.1-.1.7-.4,1.3-.8,1.8-.4.6-.9,1.1-1.4,1.5-.6.4-1.1.9-1.7,1.2s-1.1.6-1.5.9c-.5.2-.8.4-1,.5h0c.4,0,.9,0,1.5,0,.6,0,1.2,0,1.9.1.6.1,1.2.4,1.8.7s1,.9,1.3,1.7c.2.5.4,1,.4,1.6.1.5.2,1,.3,1.5,0,.5.2,1,.2,1.5,0,.5.2,1,.4,1.5.2.6.6,1,1,1.2.5.2,1,.3,1.5.1.2,0,.4-.1.5-.2.2,0,.3-.2.4-.2l.3.4c-.1,0-.3.2-.6.3-.3.1-.6.3-1,.4-.6.2-1.2.3-1.7.4-.6,0-1.1,0-1.6-.1-.5-.1-.9-.4-1.3-.7-.4-.4-.7-.9-.9-1.5-.1-.3-.2-.7-.4-1.3-.1-.5-.2-1.1-.3-1.7-.1-.6-.2-1.1-.4-1.7-.1-.6-.3-1-.4-1.4-.1-.4-.4-.7-.6-1-.2-.3-.6-.5-1-.7-.4-.1-1-.2-1.6-.1s-1.5.2-2.5.5l-1.4.4v12.8c-.1,0,3.8-1.2,3.8-1.2v.5l-10.4,3.3v-.5l3.5-1.1v-24c.1,0-3.8,1.2-3.8,1.2h0ZM203.3,222.1c.9-.3,1.7-.6,2.3-1,.6-.4,1.1-.7,1.4-1.1.2-.3.5-.6.7-1,.2-.4.4-.9.5-1.4.1-.5.1-1.1.1-1.7,0-.6-.2-1.3-.5-2.1-.4-1.2-1.2-1.9-2.1-2.2-1-.3-2.1-.3-3.2,0l-1.4.4v10.7c0,0,2.2-.7,2.2-.7h0Z"/>
      <path class="cls-2" d="M217,222.1c.1-1.3.5-2.4,1.1-3.5.6-1.1,1.3-2,2.2-2.8.9-.8,1.8-1.4,2.8-1.7.9-.3,1.7-.4,2.5-.2.8.1,1.5.4,2.1.8.6.4,1.2.9,1.6,1.4.4.6.8,1.1,1,1.7.5,1.2.6,2.4.4,3.7-.1,1.2-.5,2.4-1.1,3.5-.6,1.1-1.3,2-2.1,2.8-.9.8-1.8,1.4-2.7,1.7-.8.3-1.6.4-2.4.3-.8,0-1.5-.3-2.1-.6s-1.2-.8-1.7-1.3c-.5-.6-.9-1.2-1.1-1.9-.5-1.2-.6-2.5-.5-3.8h0ZM222.2,229c.8.3,1.6.4,2.4,0,.7-.2,1.3-.6,1.8-1.2.5-.6.8-1.2,1.1-2,.3-.8.4-1.6.5-2.5.1-.9.1-1.7.1-2.6s-.1-1.6-.2-2.3c-.1-.7-.2-1.3-.4-1.7-.4-1-.9-1.7-1.6-2.1-.7-.4-1.6-.5-2.8-.1-.7.2-1.2.6-1.7,1.1-.4.5-.8,1.2-1.1,1.9-.3.7-.4,1.5-.6,2.4-.1.9-.1,1.7-.1,2.5s.1,1.6.2,2.4c.1.8.3,1.4.5,1.9.4,1.1,1,1.8,1.7,2.1h0Z"/>
      <path class="cls-2" d="M231.4,214.6c0-.5,0-1,0-1.5.1-.5.3-.9.6-1.4.3-.4.7-.7,1.3-.9.7-.2,1.4-.2,2,0,.6.2,1.2.5,1.7.9.5.4.9.9,1.3,1.5s.6,1.1.8,1.6c.5,1.4.9,2.6,1.1,3.6s.4,1.9.5,2.6h0s1.9-10.3,1.9-10.3c0-.4.1-.7.2-1.1,0-.4.2-.7.4-1,.2-.3.4-.6.6-.9s.6-.5,1-.6c.6-.2,1-.2,1.3,0s.5.4.6.7c.1.4.1.8,0,1.1-.2.3-.5.6-.9.7-.4.1-.7,0-.9-.4,0-.2,0-.4,0-.6,0-.2,0-.3,0-.5-.1-.3-.3-.4-.6-.2-.3.1-.5.4-.7.8-.2.4-.4,1.1-.6,2.1l-2.2,12.3-.7,4c-.1.8-.3,1.6-.5,2.3-.2.8-.4,1.5-.7,2.1s-.6,1.2-1.1,1.6-.9.8-1.5,1c-.9.3-1.6.3-2.3,0s-1.1-.6-1.4-1.3c-.2-.5-.2-.9.1-1.2.3-.3.6-.5,1-.6.3,0,.6,0,.8,0,.2,0,.4.2.5.5,0,.2.1.3.1.4s0,.2,0,.3,0,.2,0,.4c0,.1,0,.3.1.5,0,.2.3.4.5.5.3,0,.6,0,.9,0,.6-.2,1.1-.8,1.6-1.8.4-1,.7-2.1.8-3.6s0-2.9-.2-4.6-.7-3.4-1.3-5c-.6-1.6-1.2-2.9-1.6-3.9s-.9-1.8-1.3-2.3c-.4-.5-.7-.9-.9-1-.2-.1-.5-.2-.7-.1-.4.1-.7.4-.9.8-.2.4-.3.8-.4,1.3s0,.9,0,1.4,0,.8.1,1.1h-.5c0-.3,0-.8-.1-1.3h0Z"/>
      <path class="cls-2" d="M258,211.6c0,.4,0,.7,0,1,0,.3,0,.6.2,1,.3.7.7,1.3,1.3,1.7.6.4,1.2.7,1.9.9s1.5.2,2.3.2,1.6-.2,2.3-.4c1-.3,1.8-.7,2.5-1.2.7-.5,1.2-1.1,1.6-1.7s.6-1.3.6-2.1c0-.7,0-1.5-.4-2.2-.3-.8-.7-1.4-1.3-1.9-.6-.5-1.3-.9-2.2-1.2l-3.2-1.3c-1.4-.6-2.6-1.2-3.6-1.9-1-.7-1.7-1.6-2.1-2.7-.3-.9-.4-1.7-.3-2.6.1-.9.5-1.7,1-2.4s1.2-1.4,2-2,1.7-1,2.7-1.4c.7-.2,1.3-.4,1.9-.4.6,0,1.1,0,1.6,0h1.4c.4,0,.8,0,1.2-.2.3-.1.6-.3.7-.5s.2-.4.2-.7h.5c0,0,0,6.6,0,6.6h-.4s0-.3,0-.6c0-.3-.1-.7-.3-1.2-.3-.8-.7-1.3-1.1-1.8-.5-.4-1-.7-1.6-.9-.6-.2-1.2-.2-1.9-.2s-1.3.2-2,.4c-.8.3-1.5.6-2.1,1s-1.1.9-1.4,1.4-.6,1.1-.6,1.6,0,1.2.2,1.8c.3.9.9,1.6,1.7,2.1.8.5,1.6.9,2.5,1.2l4,1.5c1.1.4,2,.9,3,1.6.9.6,1.5,1.5,1.9,2.5.3.8.4,1.6.3,2.6,0,.9-.4,1.9-.9,2.8-.5.9-1.3,1.7-2.3,2.5-1,.8-2.3,1.4-3.9,1.9-.8.3-1.6.4-2.2.5s-1.3.1-1.9.1h-1.6c-.5,0-1,.1-1.4.2-.3,0-.5.3-.7.6-.2.3-.2.5-.2.8h-.5c0,0,0-6.9,0-6.9h.5c0-.1,0-.1,0-.1Z"/>
      <path class="cls-2" d="M275.9,198.2v-.5s5.4-1.7,5.4-1.7v11.9c0,.4,0,.7,0,1.1,0,.4,0,.7.2,1,0,.2.2.4.5.6s.5.1.8,0c.4-.1.7-.3.9-.7.3-.3.5-.7.7-1.1.2-.4.3-.8.4-1.2,0-.4.1-.7.1-.9h.5c0,.2,0,.5-.1.9,0,.4-.2.8-.4,1.3s-.5.9-.9,1.3-1,.7-1.6.9c-.8.2-1.4.3-1.9.1s-1-.6-1.2-1.2c-.1-.4-.2-.8-.2-1.2,0-.5,0-.9,0-1.3v-10.3l-3,1h0ZM278.1,187.6c.2-.4.5-.6,1-.8s.9-.1,1.3,0c.4.2.7.5.9.9s.1.8,0,1.2c-.2.4-.5.6-1,.8-.5.1-.9.1-1.3,0-.4-.2-.7-.5-.9-.9-.2-.4-.1-.8,0-1.2h0Z"/>
      <path class="cls-2" d="M290.7,189.6v3.4s3.7-1.2,3.7-1.2v.5s-3.7,1.2-3.7,1.2v11.2c0,.4,0,.7,0,1.1s0,.7.2,1.1c.1.3.3.5.5.7.2.1.6.1.9,0,.4-.1.8-.4,1-.7.3-.3.5-.7.7-1.1s.3-.8.4-1.2c0-.4.1-.7.2-.9h.5c0,.2,0,.5-.1.9,0,.4-.2.8-.4,1.3-.2.4-.5.9-.9,1.3s-1,.7-1.7.9c-.9.3-1.6.3-2.2,0-.6-.2-1-.6-1.2-1.2-.2-.4-.2-.9-.3-1.5,0-.6,0-1.1,0-1.6v-9.6c0,0-3,1-3,1v-.5s3-1,3-1v-3.4s2.4-.8,2.4-.8h0Z"/>
      <path class="cls-2" d="M283.8,56.4c-11.2.9-13.9,1.9-23.9-2.4-4.2-1.8-8.8-3.8-14.1-6-5.2-2.2-11.5-4.2-18.7-6-7.2-1.8-16.2-2.7-27-2.7s-28.4,2.4-40.8,7.2c-12.4,4.8-23.1,11.3-32.1,19.7s-15.8,18.3-20.8,29.8c-4.9,11.5-7.4,23.9-7.4,37.4,0,20.6,6.4,37,19.1,49.2,12.8,12.2,31.6,22.1,56.5,29.6l.9.3,111.4-35.5c1-.3.8-1.7-.2-1.7-31.7-.7-194.9-7.1-154.4-95,14.4-31.2,60.3-34.6,67.7-34.6,69.4.2,85.3,72.1,87.2,82.8h5.5c4.8-.2,1-72.7-9-71.9h0ZM287.8,107s-9-32.2-22.1-43.5c0,0,11.2,2.6,14.1.9,0,0,9,18.6,8,42.6Z"/>
      <path class="cls-2" d="M316.1,229.5c-3-4.9-6.3-9.3-9.9-13.3l-106,37c-1.2.4-.8,2.4.4,2.1,41.8-8.2,115.8-5.7,85.3,62.1-8,17.8-38.9,63.9-138.8,36.9-7.8-2.1-13.8-9.4-20.3-16.6-6.5-7.2-12.4-16.3-17.8-27.3-5.4-11-9.8-24.6-13.2-40.7h-5.1s-14,67.8,11.3,89.1c1.9,1.6,4.8-2.7,9.4-2.7s11.4,1.2,18.4,3.6c7.1,2.4,13.7,4.5,19.8,6.3,5.2,1.5,10,2.6,14.3,3.4,4.3.7,8.6,1.4,12.9,2,4.3.6,8.9,1,13.8,1.1,4.9.1,10.6.2,17.1.2,18.1,0,34.4-2.9,48.9-8.7s26.8-13.6,36.9-23.3,17.9-20.9,23.3-33.6c5.4-12.7,8.1-26,8.1-40.1s-3-27.8-9-37.6h0ZM103.8,341.9s-9-18.6-8-42.6c0,0,9,32.2,22.1,43.5,0,0-11.2-2.6-14.1-.9Z"/>
    </g>
  </g>
</svg>