<?xml version="1.0" encoding="UTF-8"?>
<svg id="Layer_1" xmlns="http://www.w3.org/2000/svg" version="1.1" viewBox="0 0 930.6 907.7">
  <!-- Generator: Adobe Illustrator 29.1.0, SVG Export Plug-In . SVG Version: 2.1.0 Build 142)  -->
  <defs>
    <style>
      .st0 {
        fill: none;
      }

      .st1 {
        font-family: Galvji-Bold, Galvji;
        font-size: 123.3px;
        font-weight: 700;
      }

      .st1, .st2 {
        isolation: isolate;
      }

      .st1, .st3 {
        fill: #ff6c00;
      }

      .st4 {
        fill: #fff;
      }
    </style>
  </defs>
  <path class="st4" d="M493.2,285.5v.2c0,0,0,0,0,0v-.2Z"/>
  <path class="st0" d="M493.2,285.5v.2c0,0,0,0,0,0v-.2Z"/>
  <g>
    <path class="st3" d="M358.5,188C161.6,188,1.9,347.7,1.9,544.6s159.7,356.6,356.6,356.6,356.6-159.7,356.6-356.6-159.7-356.6-356.6-356.6ZM186.1,354.2c8.6-19.9,20.4-37.1,36-51.6,15.6-14.5,34.1-25.8,55.6-34.1,21.4-8.3,51.9-12.5,70.6-12.5s34.2,1.6,46.7,4.7c12.5,3.1,23.4,6.6,32.4,10.4,9.2,3.8,17.1,7.3,24.4,10.4,17.3,7.5,22,5.8,41.3,4.2v-.2c.1,0,.1.2.1.2,0,0,0,0-.1,0h0c17.3-1.2,23.9,124.3,15.6,124.6h-9.5c-3.2-18.5-30.8-143-150.9-143.3-12.8,0-92.3,5.9-117.2,59.9-70.1,152.2,212.4,163.3,267.3,164.5,1.7,0,2,2.4.3,2.9l-192.8,61.5-1.6-.5c-43.1-12.9-75.6-30.1-97.8-51.2-22-21.2-33.1-49.5-33.1-85.2s4.3-44.8,12.8-64.7ZM550.6,719.4c-9.3,22-22.8,41.4-40.3,58.2s-38.8,30.3-63.9,40.3c-25.1,10.1-53.3,15.1-84.6,15.1s-21.1,0-29.6-.3-16.5-.9-23.9-1.9c-7.4-1.1-14.9-2.3-22.3-3.5-7.5-1.4-15.8-3.3-24.8-5.9-10.6-3.1-22-6.7-34.3-10.9-12.2-4.1-23.9-6.2-31.9-6.2s-13,7.5-16.3,4.7c-43.8-36.8-19.6-154.2-19.6-154.2h8.8c5.8,27.9,13.5,51.5,22.8,70.5,9.3,19.1,19.5,34.8,30.8,47.3,11.2,12.4,21.6,25.1,35.1,28.7,173,46.7,226.5-33.1,240.3-63.9,52.8-117.4-75.3-121.7-147.7-107.5-2.1.6-2.8-2.9-.7-3.6l183.5-64c6.2,6.9,11.9,14.5,17.1,23h0c0-.2-.1-.3-.2-.4l.3.2h-.1c10.3,17.1,15.4,40.6,15.4,64.9s-4.7,47.4-14,69.4Z"/>
    <path class="st4" d="M337.9,559.2v-.9l14.4-4.5c1.4-.3,2.8-.7,4.5-.9,1.6-.2,3.1,0,4.5,0,1.4.3,2.8.9,4,1.6,1.2.9,2.1,2.1,2.6,3.6.5,1.4.7,2.6.3,3.6-.2,1.2-.7,2.3-1.4,3.1-.7,1-1.6,1.9-2.4,2.6-1,.7-1.9,1.6-2.9,2.1s-1.9,1-2.6,1.6c-.9.3-1.4.7-1.7.9h2.6c1,0,2.1,0,3.3.2,1,.2,2.1.7,3.1,1.2s1.7,1.6,2.3,2.9c.3.9.7,1.7.7,2.8.2.9.3,1.7.5,2.6,0,.9.3,1.7.3,2.6s.3,1.7.7,2.6c.3,1,1,1.7,1.7,2.1.9.3,1.7.5,2.6.2.3,0,.7-.2.9-.3.3,0,.5-.3.7-.3l.5.7c-.2,0-.5.3-1,.5s-1,.5-1.7.7c-1,.3-2.1.5-2.9.7-1,0-1.9,0-2.8-.2s-1.6-.7-2.3-1.2c-.7-.7-1.2-1.6-1.6-2.6-.2-.5-.3-1.2-.7-2.3-.2-.9-.3-1.9-.5-2.9s-.3-1.9-.7-2.9c-.2-1-.5-1.7-.7-2.4s-.7-1.2-1-1.7-1-.9-1.7-1.2c-.7-.2-1.7-.3-2.8-.2-1,.2-2.6.3-4.3.9l-2.4.7v22.2c-.2,0,6.6-2.1,6.6-2.1v.9l-18,5.7v-.9l6.1-1.9v-41.5c.2,0-6.6,2.1-6.6,2.1h0v-.2l-.2-.3ZM353.9,572.5c1.6-.5,2.9-1,4-1.7s1.9-1.2,2.4-1.9c.3-.5.9-1,1.2-1.7s.7-1.6.9-2.4.2-1.9.2-2.9-.3-2.3-.9-3.6c-.7-2.1-2.1-3.3-3.6-3.8-1.7-.5-3.6-.5-5.5,0l-2.4.7v18.5l3.8-1.2h0v.2-.2Z"/>
    <path class="st4" d="M377.6,572.5c.2-2.3.9-4.2,1.9-6.1s2.3-3.5,3.8-4.8c1.6-1.4,3.1-2.4,4.8-2.9,1.6-.5,2.9-.7,4.3-.3,1.4.2,2.6.7,3.6,1.4s2.1,1.6,2.8,2.4c.7,1,1.4,1.9,1.7,2.9.9,2.1,1,4.2.7,6.4-.2,2.1-.9,4.2-1.9,6.1-1,1.9-2.3,3.5-3.6,4.8-1.6,1.4-3.1,2.4-4.7,2.9-1.4.5-2.8.7-4.2.5-1.4,0-2.6-.5-3.6-1s-2.1-1.4-2.9-2.3c-.9-1-1.6-2.1-1.9-3.3-.9-2.1-1-4.3-.9-6.6h0v-.2h.1ZM386.6,584.4c1.4.5,2.8.7,4.2,0,1.2-.3,2.3-1,3.1-2.1.9-1,1.4-2.1,1.9-3.5s.7-2.8.9-4.3.2-2.9.2-4.5-.2-2.8-.3-4c-.2-1.2-.3-2.3-.7-2.9-.7-1.7-1.6-2.9-2.8-3.6-1.2-.7-2.8-.9-4.8-.2-1.2.3-2.1,1-2.9,1.9-.7.9-1.4,2.1-1.9,3.3s-.7,2.6-1,4.2c-.2,1.6-.2,2.9-.2,4.3s.2,2.8.3,4.2c.2,1.4.5,2.4.9,3.3.7,1.9,1.7,3.1,2.9,3.6h0l.3.3h-.1Z"/>
    <path class="st4" d="M402.5,559.5v-2.6c.2-.9.5-1.6,1-2.4.5-.7,1.2-1.2,2.3-1.6,1.2-.3,2.4-.3,3.5,0s2.1.9,2.9,1.6,1.6,1.6,2.3,2.6,1,1.9,1.4,2.8c.9,2.4,1.6,4.5,1.9,6.2s.7,3.3.9,4.5h0l3.3-17.8c0-.7.2-1.2.3-1.9,0-.7.3-1.2.7-1.7s.7-1,1-1.6,1-.9,1.7-1c1-.3,1.7-.3,2.3,0s.9.7,1,1.2c.2.7.2,1.4,0,1.9-.3.5-.9,1-1.6,1.2s-1.2,0-1.6-.7v-1.9c-.2-.5-.5-.7-1-.3-.5.2-.9.7-1.2,1.4-.3.7-.7,1.9-1,3.6l-3.8,21.3-1.2,6.9c-.2,1.4-.5,2.8-.9,4-.3,1.4-.7,2.6-1.2,3.6s-1,2.1-1.9,2.8-1.6,1.4-2.6,1.7c-1.6.5-2.8.5-4,0s-1.9-1-2.4-2.3c-.3-.9-.3-1.6.2-2.1s1-.9,1.7-1h1.4c.3,0,.7.3.9.9,0,.3.2.5.2.7v1.2c0,.2,0,.5.2.9,0,.3.5.7.9.9h1.6c1-.3,1.9-1.4,2.8-3.1.7-1.7,1.2-3.6,1.4-6.2s0-5-.3-8-1.2-5.9-2.3-8.7-2.1-5-2.8-6.8-1.6-3.1-2.3-4c-.7-.9-1.2-1.6-1.6-1.7s-.9-.3-1.2-.2c-.7.2-1.2.7-1.6,1.4-.3.7-.5,1.4-.7,2.3s0,1.6,0,2.4,0,1.4.2,1.9h-.9c0-.5,0-1.4-.2-2.3h.3Z"/>
    <path class="st4" d="M448.6,554.3v1.7c0,.5,0,1,.3,1.7.5,1.2,1.2,2.3,2.3,2.9,1,.7,2.1,1.2,3.3,1.6s2.6.3,4,.3,2.8-.3,4-.7c1.7-.5,3.1-1.2,4.3-2.1s2.1-1.9,2.8-2.9,1-2.3,1-3.6,0-2.6-.7-3.8c-.5-1.4-1.2-2.4-2.3-3.3-1-.9-2.3-1.6-3.8-2.1l-5.5-2.3c-2.4-1-4.5-2.1-6.2-3.3s-2.9-2.8-3.6-4.7c-.5-1.6-.7-2.9-.5-4.5s.9-2.9,1.7-4.2,2.1-2.4,3.5-3.5c1.4-1,2.9-1.7,4.7-2.4,1.2-.3,2.3-.7,3.3-.7h5.2c.7,0,1.4,0,2.1-.3.5-.2,1-.5,1.2-.9s.3-.7.3-1.2h.9v11.4h-.7v-1c0-.5-.2-1.2-.5-2.1-.5-1.4-1.2-2.3-1.9-3.1-.9-.7-1.7-1.2-2.8-1.6s-2.1-.3-3.3-.3-2.3.3-3.5.7c-1.4.5-2.6,1-3.6,1.7s-1.9,1.6-2.4,2.4-1,1.9-1,2.8,0,2.1.3,3.1c.5,1.6,1.6,2.8,2.9,3.6,1.4.9,2.8,1.6,4.3,2.1l6.9,2.6c1.9.7,3.5,1.6,5.2,2.8,1.6,1,2.6,2.6,3.3,4.3.5,1.4.7,2.8.5,4.5,0,1.6-.7,3.3-1.6,4.8-.9,1.6-2.3,2.9-4,4.3s-4,2.4-6.8,3.3c-1.4.5-2.8.7-3.8.9s-2.3.2-3.3.2h-2.8c-.9,0-1.7.2-2.4.3-.5,0-.9.5-1.2,1s-.3.9-.3,1.4h-.9v-11.9h.9v-.2h.2v.3Z"/>
    <path class="st4" d="M479.5,531.1v-.9l9.3-2.9v22.5c0,.7,0,1.2.3,1.7,0,.3.3.7.9,1s.9.2,1.4,0c.7-.2,1.2-.5,1.6-1.2.5-.5.9-1.2,1.2-1.9.3-.7.5-1.4.7-2.1,0-.7.2-1.2.2-1.6h.9c0,.3,0,.9-.2,1.6,0,.7-.3,1.4-.7,2.3s-.9,1.6-1.6,2.3-1.7,1.2-2.8,1.6c-1.4.3-2.4.5-3.3.2s-1.7-1-2.1-2.1c-.2-.7-.3-1.4-.3-2.1v-20.1l-5.2,1.7h-.3ZM483.4,512.8c.3-.7.9-1,1.7-1.4s1.6-.2,2.3,0c.7.3,1.2.9,1.6,1.6s.2,1.4,0,2.1c-.3.7-.9,1-1.7,1.4-.9.2-1.6.2-2.3,0-.7-.3-1.2-.9-1.6-1.6-.3-.7-.2-1.4,0-2.1h0Z"/>
    <path class="st4" d="M505.2,516.2v5.9l6.4-2.1v.9l-6.4,2.1v21.3c0,.7,0,1.2.3,1.9.2.5.5.9.9,1.2.3.2,1,.2,1.6,0,.7-.2,1.4-.7,1.7-1.2.5-.5.9-1.2,1.2-1.9s.5-1.4.7-2.1c0-.7.2-1.2.3-1.6h.9c0,.3,0,.9-.2,1.6,0,.7-.3,1.4-.7,2.3-.3.7-.9,1.6-1.6,2.3s-1.7,1.2-2.9,1.6c-1.6.5-2.8.5-3.8,0-1-.3-1.7-1-2.1-2.1-.3-.7-.3-1.6-.5-2.6v-19.4l-5.2,1.7v-.9l5.2-1.7v-5.9l4.2-1.4h0v.2h0Z"/>
    <path class="st3" d="M486.2,299.6c-5,2.9-24.4-1.6-24.4-1.6,21.7,18.7,36.9,70.5,38.2,75,1.7-41.3-13.8-73.4-13.8-73.4Z"/>
    <path class="st4" d="M500.1,373.3s0-.1,0-.3c0,.1,0,.2,0,.3h.1Z"/>
    <path class="st0" d="M206.4,504.1c22.2,21.1,54.7,38.3,97.8,51.2l1.6.5,192.8-61.5c1.7-.5,1.4-2.9-.3-2.9-54.9-1.2-337.4-12.3-267.3-164.5,24.9-54,104.4-59.9,117.2-59.9,120.1.3,147.7,124.8,150.9,143.3h9.5c8.3-.3,1.7-125.8-15.6-124.5h0c-19.3,1.5-24,3.2-41.3-4.3-7.3-3.1-15.2-6.6-24.4-10.4-9-3.8-19.9-7.3-32.4-10.4-12.5-3.1-28-4.7-46.7-4.7s-49.2,4.2-70.6,12.5c-21.5,8.3-40,19.6-55.6,34.1-15.6,14.5-27.4,31.7-36,51.6-8.5,19.9-12.8,41.4-12.8,64.7,0,35.7,11.1,64,33.1,85.2Z"/>
    <path class="st3" d="M167.8,706.2c-1.8,41.5,13.8,73.7,13.8,73.7h0c5-2.9,24.4,1.6,24.4,1.6-22.7-19.6-38.3-75.3-38.3-75.3Z"/>
    <path class="st4" d="M549,584.9c0,.1.1.2.2.3h.1c0-.1-.3-.3-.3-.3Z"/>
  </g>
  <g id="Layer_11">
    <circle class="st3" cx="-1223.8" cy="476.4" r="356.6"/>
    <path class="st4" d="M-1244.4,491v-.9l14.4-4.5c1.4-.3,2.8-.7,4.5-.9,1.6-.2,3.1,0,4.5,0,1.4.3,2.8.9,4,1.6,1.2.9,2.1,2.1,2.6,3.6.5,1.4.7,2.6.3,3.6-.2,1.2-.7,2.3-1.4,3.1-.7,1-1.6,1.9-2.4,2.6-1,.7-1.9,1.6-2.9,2.1s-1.9,1-2.6,1.6c-.9.3-1.4.7-1.7.9h2.6c1,0,2.1,0,3.3.2,1,.2,2.1.7,3.1,1.2s1.7,1.6,2.3,2.9c.3.9.7,1.7.7,2.8.2.9.3,1.7.5,2.6,0,.9.3,1.7.3,2.6s.3,1.7.7,2.6c.3,1,1,1.7,1.7,2.1.9.3,1.7.5,2.6.2.3,0,.7-.2.9-.3.3,0,.5-.3.7-.3l.5.7c-.2,0-.5.3-1,.5s-1,.5-1.7.7c-1,.3-2.1.5-2.9.7-1,0-1.9,0-2.8-.2s-1.6-.7-2.3-1.2c-.7-.7-1.2-1.6-1.6-2.6-.2-.5-.3-1.2-.7-2.3-.2-.9-.3-1.9-.5-2.9s-.3-1.9-.7-2.9c-.2-1-.5-1.7-.7-2.4s-.7-1.2-1-1.7-1-.9-1.7-1.2c-.7-.2-1.7-.3-2.8-.2-1,.2-2.6.3-4.3.9l-2.4.7v22.2c-.2,0,6.6-2.1,6.6-2.1v.9l-18,5.7v-.9l6.1-1.9v-41.5c.2,0-6.6,2.1-6.6,2.1h0v-.2l-.2-.3ZM-1228.4,504.3c1.6-.5,2.9-1,4-1.7s1.9-1.2,2.4-1.9c.3-.5.9-1,1.2-1.7s.7-1.6.9-2.4.2-1.9.2-2.9-.3-2.3-.9-3.6c-.7-2.1-2.1-3.3-3.6-3.8-1.7-.5-3.6-.5-5.5,0l-2.4.7v18.5l3.8-1.2h0v.2-.2Z"/>
    <path class="st4" d="M-1204.7,504.3c.2-2.3.9-4.2,1.9-6.1s2.3-3.5,3.8-4.8c1.6-1.4,3.1-2.4,4.8-2.9,1.6-.5,2.9-.7,4.3-.3,1.4.2,2.6.7,3.6,1.4s2.1,1.6,2.8,2.4c.7,1,1.4,1.9,1.7,2.9.9,2.1,1,4.2.7,6.4-.2,2.1-.9,4.2-1.9,6.1-1,1.9-2.3,3.5-3.6,4.8-1.6,1.4-3.1,2.4-4.7,2.9-1.4.5-2.8.7-4.2.5-1.4,0-2.6-.5-3.6-1s-2.1-1.4-2.9-2.3c-.9-1-1.6-2.1-1.9-3.3-.9-2.1-1-4.3-.9-6.6h0v-.2h.1ZM-1195.7,516.2c1.4.5,2.8.7,4.2,0,1.2-.3,2.3-1,3.1-2.1.9-1,1.4-2.1,1.9-3.5s.7-2.8.9-4.3.2-2.9.2-4.5-.2-2.8-.3-4c-.2-1.2-.3-2.3-.7-2.9-.7-1.7-1.6-2.9-2.8-3.6-1.2-.7-2.8-.9-4.8-.2-1.2.3-2.1,1-2.9,1.9-.7.9-1.4,2.1-1.9,3.3s-.7,2.6-1,4.2c-.2,1.6-.2,2.9-.2,4.3s.2,2.8.3,4.2c.2,1.4.5,2.4.9,3.3.7,1.9,1.7,3.1,2.9,3.6h0l.3.3h-.1Z"/>
    <path class="st4" d="M-1179.8,491.3v-2.6c.2-.9.5-1.6,1-2.4.5-.7,1.2-1.2,2.3-1.6,1.2-.3,2.4-.3,3.5,0s2.1.9,2.9,1.6,1.6,1.6,2.3,2.6,1,1.9,1.4,2.8c.9,2.4,1.6,4.5,1.9,6.2s.7,3.3.9,4.5h0l3.3-17.8c0-.7.2-1.2.3-1.9,0-.7.3-1.2.7-1.7s.7-1,1-1.6,1-.9,1.7-1c1-.3,1.7-.3,2.3,0s.9.7,1,1.2c.2.7.2,1.4,0,1.9-.3.5-.9,1-1.6,1.2s-1.2,0-1.6-.7v-1.9c-.2-.5-.5-.7-1-.3-.5.2-.9.7-1.2,1.4-.3.7-.7,1.9-1,3.6l-3.8,21.3-1.2,6.9c-.2,1.4-.5,2.8-.9,4-.3,1.4-.7,2.6-1.2,3.6s-1,2.1-1.9,2.8-1.6,1.4-2.6,1.7c-1.6.5-2.8.5-4,0s-1.9-1-2.4-2.3c-.3-.9-.3-1.6.2-2.1s1-.9,1.7-1h1.4c.3,0,.7.3.9.9,0,.3.2.5.2.7v1.2c0,.2,0,.5.2.9,0,.3.5.7.9.9h1.6c1-.3,1.9-1.4,2.8-3.1.7-1.7,1.2-3.6,1.4-6.2s0-5-.3-8-1.2-5.9-2.3-8.7-2.1-5-2.8-6.8-1.6-3.1-2.3-4c-.7-.9-1.2-1.6-1.6-1.7s-.9-.3-1.2-.2c-.7.2-1.2.7-1.6,1.4-.3.7-.5,1.4-.7,2.3s0,1.6,0,2.4,0,1.4.2,1.9h-.9c0-.5,0-1.4-.2-2.3h.3Z"/>
    <path class="st4" d="M-1133.7,486.1v1.7c0,.5,0,1,.3,1.7.5,1.2,1.2,2.3,2.3,2.9,1,.7,2.1,1.2,3.3,1.6s2.6.3,4,.3,2.8-.3,4-.7c1.7-.5,3.1-1.2,4.3-2.1s2.1-1.9,2.8-2.9,1-2.3,1-3.6,0-2.6-.7-3.8c-.5-1.4-1.2-2.4-2.3-3.3-1-.9-2.3-1.6-3.8-2.1l-5.5-2.3c-2.4-1-4.5-2.1-6.2-3.3s-2.9-2.8-3.6-4.7c-.5-1.6-.7-2.9-.5-4.5s.9-2.9,1.7-4.2,2.1-2.4,3.5-3.5c1.4-1,2.9-1.7,4.7-2.4,1.2-.3,2.3-.7,3.3-.7h5.2c.7,0,1.4,0,2.1-.3.5-.2,1-.5,1.2-.9s.3-.7.3-1.2h.9v11.4h-.7v-1c0-.5-.2-1.2-.5-2.1-.5-1.4-1.2-2.3-1.9-3.1-.9-.7-1.7-1.2-2.8-1.6s-2.1-.3-3.3-.3-2.3.3-3.5.7c-1.4.5-2.6,1-3.6,1.7s-1.9,1.6-2.4,2.4-1,1.9-1,2.8,0,2.1.3,3.1c.5,1.6,1.6,2.8,2.9,3.6,1.4.9,2.8,1.6,4.3,2.1l6.9,2.6c1.9.7,3.5,1.6,5.2,2.8,1.6,1,2.6,2.6,3.3,4.3.5,1.4.7,2.8.5,4.5,0,1.6-.7,3.3-1.6,4.8-.9,1.6-2.3,2.9-4,4.3s-4,2.4-6.8,3.3c-1.4.5-2.8.7-3.8.9s-2.3.2-3.3.2h-2.8c-.9,0-1.7.2-2.4.3-.5,0-.9.5-1.2,1s-.3.9-.3,1.4h-.9v-11.9h.9v-.2h.2v.3Z"/>
    <path class="st4" d="M-1102.8,462.9v-.9l9.3-2.9v22.5c0,.7,0,1.2.3,1.7,0,.3.3.7.9,1s.9.2,1.4,0c.7-.2,1.2-.5,1.6-1.2.5-.5.9-1.2,1.2-1.9.3-.7.5-1.4.7-2.1,0-.7.2-1.2.2-1.6h.9c0,.3,0,.9-.2,1.6,0,.7-.3,1.4-.7,2.3s-.9,1.6-1.6,2.3-1.7,1.2-2.8,1.6c-1.4.3-2.4.5-3.3.2s-1.7-1-2.1-2.1c-.2-.7-.3-1.4-.3-2.1v-20.1l-5.2,1.7h-.3ZM-1098.9,444.6c.3-.7.9-1,1.7-1.4s1.6-.2,2.3,0c.7.3,1.2.9,1.6,1.6s.2,1.4,0,2.1c-.3.7-.9,1-1.7,1.4-.9.2-1.6.2-2.3,0-.7-.3-1.2-.9-1.6-1.6-.3-.7-.2-1.4,0-2.1h0Z"/>
    <path class="st4" d="M-1077.1,448v5.9l6.4-2.1v.9l-6.4,2.1v21.3c0,.7,0,1.2.3,1.9.2.5.5.9.9,1.2.3.2,1,.2,1.6,0,.7-.2,1.4-.7,1.7-1.2.5-.5.9-1.2,1.2-1.9s.5-1.4.7-2.1c0-.7.2-1.2.3-1.6h.9c0,.3,0,.9-.2,1.6,0,.7-.3,1.4-.7,2.3-.3.7-.9,1.6-1.6,2.3s-1.7,1.2-2.9,1.6c-1.6.5-2.8.5-3.8,0-1-.3-1.7-1-2.1-2.1-.3-.7-.3-1.6-.5-2.6v-19.4l-5.2,1.7v-.9l5.2-1.7v-5.9l4.2-1.4h0v.2h0Z"/>
    <path class="st4" d="M-1089.1,217.5c-19.4,1.6-24.1,3.3-41.4-4.2-7.3-3.1-15.2-6.6-24.4-10.4-9-3.8-19.9-7.3-32.4-10.4s-28-4.7-46.7-4.7-49.2,4.2-70.6,12.5c-21.5,8.3-40,19.6-55.6,34.1s-27.4,31.7-36,51.6c-8.5,19.9-12.8,41.4-12.8,64.7,0,35.7,11.1,64,33.1,85.2,22.2,21.1,54.7,38.3,97.8,51.2l1.6.5,192.8-61.5c1.7-.5,1.4-2.9-.3-2.9-54.9-1.2-337.4-12.3-267.3-164.5,24.9-54,104.4-59.9,117.2-59.9,120.1.3,147.7,124.8,150.9,143.3h9.5c8.3-.3,1.7-125.8-15.6-124.5h0l.2-.3v.2ZM-1082.2,305.1s-15.6-55.7-38.3-75.3c0,0,19.4,4.5,24.4,1.6,0,0,15.6,32.2,13.8,73.7h.1Z"/>
    <path class="st4" d="M-1033.2,517.1c-5.2-8.5-10.9-16.1-17.1-23l-183.5,64c-2.1.7-1.4,4.2.7,3.6,72.4-14.2,200.5-9.9,147.7,107.5-13.8,30.8-67.3,110.6-240.3,63.9-13.5-3.6-23.9-16.3-35.1-28.7-11.3-12.5-21.5-28.2-30.8-47.3-9.3-19-17-42.6-22.8-70.5h-8.8s-24.2,117.4,19.6,154.2c3.3,2.8,8.3-4.7,16.3-4.7s19.7,2.1,31.9,6.2c12.3,4.2,23.7,7.8,34.3,10.9,9,2.6,17.3,4.5,24.8,5.9,7.4,1.2,14.9,2.4,22.3,3.5,7.4,1,15.4,1.7,23.9,1.9s18.3.3,29.6.3c31.3,0,59.5-5,84.6-15.1,25.1-10,46.4-23.5,63.9-40.3s31-36.2,40.3-58.2,14-45,14-69.4-5.2-48.1-15.6-65.1h0l.3.2-.2.2ZM-1400.7,711.7s-15.6-32.2-13.8-73.7c0,0,15.6,55.7,38.3,75.3,0,0-19.4-4.5-24.4-1.6h-.1Z"/>
  </g>
  <g class="st2">
    <text class="st1" transform="translate(784.2 255.9) rotate(90)"><tspan x="0" y="0">Message</tspan></text>
  </g>
  <g class="st2">
    <text class="st1" transform="translate(42.7 135.8)"><tspan x="0" y="0" xml:space="preserve">Leave  Me   a</tspan></text>
  </g>
</svg>