<?xml version="1.0" encoding="UTF-8"?>
<svg id="Layer_1" xmlns="http://www.w3.org/2000/svg" xmlns:xlink="http://www.w3.org/1999/xlink" version="1.1" viewBox="0 0 739.2 94.8">
  <!-- Generator: Adobe Illustrator 29.3.0, SVG Export Plug-In . SVG Version: 2.1.0 Build 146)  -->
  <defs>
    <style>
      .st0 {
        fill: none;
      }

      .st1 {
        clip-path: url(#clippath-1);
      }

      .st2 {
        fill: #ff6c00;
      }

      .st3 {
        clip-path: url(#clippath);
      }
    </style>
    <clipPath id="clippath">
      <rect class="st0" x="24.8" y=".9" width="315.5" height="46.5"/>
    </clipPath>
    <clipPath id="clippath-1">
      <rect class="st0" x="24.8" y="47.4" width="315.5" height="46.5"/>
    </clipPath>
  </defs>
  <path d="M365,81.2c0-2.5.9-4.6,2.6-6.2,1.7-1.7,4-2.5,6.9-2.5s5.2.8,6.9,2.5c1.7,1.7,2.6,3.8,2.6,6.2s-.9,4.6-2.6,6.2c-1.7,1.7-4,2.5-6.9,2.5s-5.2-.8-6.9-2.5c-1.7-1.7-2.6-3.8-2.6-6.2Z"/>
  <g>
    <g class="st3">
      <g>
        <polygon points="42.9 77 42.9 3.2 24.8 3.2 24.8 91.1 37 91.1 42.9 91.1 81.3 91.1 81.3 77 42.9 77"/>
        <path d="M179.8,17.1c-2.6-4.3-6.4-7.8-11.3-10.2-4.9-2.5-10.8-3.7-17.7-3.7h-34.3v88h18.1v-31.4h16.1c6.9,0,12.8-1.1,17.7-3.4,4.9-2.3,8.7-5.5,11.3-9.6,2.6-4.1,3.9-9.1,3.9-14.7s-1.3-10.6-3.9-14.9ZM163.9,39.1c-1,2.1-2.6,3.7-4.8,4.8-2.2,1.1-5,1.7-8.5,1.7h-16.1v-28.3h16.1c3.5,0,6.3.7,8.5,2.1,2.2,1.4,3.8,3.2,4.8,5.4,1,2.3,1.5,4.7,1.5,7.3s-.5,4.9-1.5,6.9Z"/>
        <path d="M322.2,68.1c0-1.6-.2-3-.7-4.3-.5-1.3-1.3-2.4-2.6-3.5-1.2-1.1-3-2.1-5.3-3.2-2.3-1-5.2-2.1-8.8-3.3-4-1.3-7.8-2.7-11.3-4.3-3.6-1.6-6.7-3.5-9.4-5.6-2.7-2.2-4.9-4.7-6.4-7.5-1.6-2.9-2.3-6.2-2.3-10s.8-7,2.4-10c1.6-3,3.9-5.6,6.8-7.7,2.9-2.2,6.3-3.8,10.3-5,4-1.2,8.3-1.8,13.1-1.8s12.1,1.2,17,3.5c4.8,2.3,8.6,5.5,11.3,9.6,2.7,4.1,4,8.7,4,14h-18c0-2.6-.5-4.8-1.6-6.8-1.1-2-2.7-3.5-4.8-4.6-2.2-1.1-4.9-1.7-8.1-1.7s-5.8.5-7.9,1.4c-2.1.9-3.7,2.2-4.7,3.8-1,1.6-1.6,3.4-1.6,5.3s.4,2.8,1.1,4c.7,1.2,1.9,2.3,3.4,3.4,1.5,1,3.3,2,5.5,3,2.2.9,4.7,1.8,7.6,2.7,4.8,1.5,9,3.1,12.7,4.9,3.6,1.8,6.7,3.8,9.2,6.1,2.5,2.3,4.3,4.8,5.6,7.7,1.2,2.9,1.9,6.1,1.9,9.7s-.7,7.2-2.2,10.3c-1.5,3-3.6,5.6-6.5,7.7-2.8,2.1-6.2,3.7-10.1,4.8-3.9,1.1-8.3,1.6-13.1,1.6s-8.6-.6-12.9-1.7c-4.2-1.1-8.1-2.9-11.5-5.2-3.4-2.3-6.2-5.3-8.2-8.9-2.1-3.6-3.1-7.9-3.1-12.9h18.2c0,2.7.4,5.1,1.3,6.9.8,1.9,2,3.4,3.6,4.6,1.5,1.2,3.4,2,5.6,2.5,2.2.5,4.5.8,7.1.8s5.7-.4,7.8-1.3c2-.9,3.5-2.1,4.5-3.7,1-1.6,1.5-3.3,1.5-5.3Z"/>
      </g>
    </g>
    <g class="st1">
      <g>
        <polygon class="st2" points="42.9 77 42.9 3.2 24.8 3.2 24.8 91.1 37 91.1 42.9 91.1 81.3 91.1 81.3 77 42.9 77"/>
        <path class="st2" d="M179.8,17.1c-2.6-4.3-6.4-7.8-11.3-10.2-4.9-2.5-10.8-3.7-17.7-3.7h-34.3v88h18.1v-31.4h16.1c6.9,0,12.8-1.1,17.7-3.4,4.9-2.3,8.7-5.5,11.3-9.6,2.6-4.1,3.9-9.1,3.9-14.7s-1.3-10.6-3.9-14.9ZM163.9,39.1c-1,2.1-2.6,3.7-4.8,4.8-2.2,1.1-5,1.7-8.5,1.7h-16.1v-28.3h16.1c3.5,0,6.3.7,8.5,2.1,2.2,1.4,3.8,3.2,4.8,5.4,1,2.3,1.5,4.7,1.5,7.3s-.5,4.9-1.5,6.9Z"/>
        <path class="st2" d="M322.2,68.1c0-1.6-.2-3-.7-4.3-.5-1.3-1.3-2.4-2.6-3.5-1.2-1.1-3-2.1-5.3-3.2-2.3-1-5.2-2.1-8.8-3.3-4-1.3-7.8-2.7-11.3-4.3-3.6-1.6-6.7-3.5-9.4-5.6-2.7-2.2-4.9-4.7-6.4-7.5-1.6-2.9-2.3-6.2-2.3-10s.8-7,2.4-10c1.6-3,3.9-5.6,6.8-7.7,2.9-2.2,6.3-3.8,10.3-5,4-1.2,8.3-1.8,13.1-1.8s12.1,1.2,17,3.5,8.6,5.5,11.3,9.6c2.7,4.1,4,8.7,4,14h-18c0-2.6-.5-4.8-1.6-6.8-1.1-2-2.7-3.5-4.8-4.6-2.2-1.1-4.9-1.7-8.1-1.7s-5.8.5-7.9,1.4c-2.1.9-3.7,2.2-4.7,3.8-1,1.6-1.6,3.4-1.6,5.3s.4,2.8,1.1,4c.7,1.2,1.9,2.3,3.4,3.4,1.5,1,3.3,2,5.5,3,2.2.9,4.7,1.8,7.6,2.7,4.8,1.5,9,3.1,12.7,4.9,3.6,1.8,6.7,3.8,9.2,6.1,2.5,2.3,4.3,4.8,5.6,7.7,1.2,2.9,1.9,6.1,1.9,9.7s-.7,7.2-2.2,10.3c-1.5,3-3.6,5.6-6.5,7.7-2.8,2.1-6.2,3.7-10.1,4.8-3.9,1.1-8.3,1.6-13.1,1.6s-8.6-.6-12.9-1.7c-4.2-1.1-8.1-2.9-11.5-5.2s-6.2-5.3-8.2-8.9c-2.1-3.6-3.1-7.9-3.1-12.9h18.2c0,2.7.4,5.1,1.3,6.9.8,1.9,2,3.4,3.6,4.6,1.5,1.2,3.4,2,5.6,2.5,2.2.5,4.5.8,7.1.8s5.7-.4,7.8-1.3c2-.9,3.5-2.1,4.5-3.7,1-1.6,1.5-3.3,1.5-5.3Z"/>
      </g>
    </g>
  </g>
</svg>