<?xml version="1.0" encoding="UTF-8"?>
<svg id="Layer_1" xmlns="http://www.w3.org/2000/svg" xmlns:xlink="http://www.w3.org/1999/xlink" version="1.1" viewBox="0 0 739.2 94.8">
  <!-- Generator: Adobe Illustrator 29.2.1, SVG Export Plug-In . SVG Version: 2.1.0 Build 116)  -->
  <defs>
    <style>
      .st0 {
        fill: none;
      }

      .st1 {
        clip-path: url(#clippath-1);
      }

      .st2 {
        fill: #ff6c00;
      }

      .st3 {
        clip-path: url(#clippath);
      }
    </style>
    <clipPath id="clippath">
      <rect class="st0" x="55.6" y="6.8" width="628.4" height="40.5"/>
    </clipPath>
    <clipPath id="clippath-1">
      <rect class="st0" x="55.6" y="47.3" width="628.4" height="40.5"/>
    </clipPath>
  </defs>
  <path d="M566,78.1c0-2.2.8-4.1,2.4-5.7s3.7-2.2,6.3-2.2,4.6.7,6.3,2.2c1.5,1.5,2.4,3.3,2.4,5.7s-.8,4.1-2.4,5.7-3.7,2.2-6.3,2.2-4.6-.7-6.3-2.2c-1.5-1.5-2.4-3.3-2.4-5.7Z"/>
  <g>
    <g class="st3">
      <g>
        <path d="M98.5,53.3c2.1-1,4-2.1,5.9-3.4,2.5-1.9,4.5-4.4,5.9-7.3s2.1-6.5,2.1-10.5-1.1-9.2-3.4-12.6-5.5-6-9.7-7.8c-4.2-1.7-9.3-2.6-15-2.6h-28.4v76.4h15.7v-28.3h12.5l14.4,28.3h16.9v-.7l-16.5-31.4h-.3ZM71.3,21.3h12.7c2.8,0,5.2.5,7,1.4s3.2,2.4,4.1,4.1c.9,1.8,1.4,3.9,1.4,6.4s-.5,4.4-1.4,6-2.4,3.1-4.1,4.1c-1.8,1-4.1,1.5-6.8,1.5h-12.8v-23.5h0Z"/>
        <path d="M197.8,45.5v3.7c0,5.9-.8,11-2.4,15.7s-3.8,8.6-6.6,11.8-6.3,5.8-10.3,7.4c-3.9,1.7-8.4,2.5-13.2,2.5s-9.2-.9-13.1-2.5c-3.9-1.7-7.3-4.2-10.3-7.4-2.9-3.2-5.2-7.2-6.7-11.8-1.6-4.6-2.4-9.8-2.4-15.7v-3.7c0-5.9.8-11.1,2.4-15.7,1.6-4.6,3.8-8.5,6.6-11.8,2.9-3.2,6.4-5.8,10.3-7.4s8.4-2.5,13.1-2.5,9.2.9,13.2,2.5c3.9,1.7,7.3,4.2,10.3,7.4,2.9,3.2,5.2,7.2,6.7,11.8s2.4,9.8,2.4,15.7ZM182,49v-3.8c0-4-.4-7.7-1.1-10.7-.7-3.1-1.8-5.7-3.2-7.8s-3.2-3.7-5.2-4.7-4.5-1.6-7.1-1.6-5.1.5-7.1,1.6-3.8,2.6-5.2,4.7-2.5,4.6-3.2,7.8c-.7,3.1-1.1,6.6-1.1,10.7v3.8c0,4,.4,7.6,1.1,10.7s1.8,5.7,3.2,7.8,3.2,3.8,5.2,4.8c2,1.1,4.5,1.6,7.1,1.6s5.1-.5,7.1-1.6,3.8-2.7,5.2-4.8c1.4-2.1,2.4-4.7,3.2-7.8s1.1-6.6,1.1-10.7Z"/>
        <polygon points="235.7 73.2 235.7 9 220 9 220 85.4 230.6 85.4 235.7 85.4 269.1 85.4 269.1 73.2 235.7 73.2"/>
        <path d="M338.1,85.4h16.7l-28.5-76.5h-14.6l-28.3,76.4h16.7l5.2-16.2h27.5l5.2,16.2h0ZM309.4,56.9l9.7-29.5,9.7,29.5h-19.4Z"/>
        <path d="M435,9v76.4h-15.7l-30.7-51.2v51.2h-15.7V9h15.7l30.8,51.3V9h15.7Z"/>
        <path d="M515.2,30.6c-1.7-4.5-4.1-8.3-7.2-11.5-3.1-3.2-6.7-5.7-11-7.4s-8.9-2.6-14-2.6h-23.6v76.4h23.4c5.2,0,9.9-.9,14.3-2.6,4.2-1.7,8-4.2,11.1-7.3,3.1-3.2,5.4-7.1,7.2-11.5,1.7-4.4,2.5-9.4,2.5-14.9v-3.7c0-5.4-.8-10.4-2.5-14.9h-.2ZM501.8,49c0,5.2-.7,9.4-2.2,13-1.4,3.7-3.7,6.4-6.5,8.1-2.8,1.9-6.4,2.8-10.4,2.8h-7.7V21.3h7.9c3.1,0,5.8.5,8,1.5s4.4,2.5,5.9,4.5,2.8,4.5,3.7,7.4c.8,2.9,1.2,6.5,1.2,10.3v3.9h0Z"/>
        <path d="M668.8,65.1c0-1.3-.2-2.5-.6-3.7s-1.1-2.1-2.2-3.1c-1.1-.9-2.5-1.8-4.5-2.7s-4.5-1.8-7.4-2.7c-3.4-1.1-6.6-2.4-9.6-3.8s-5.7-2.9-8-4.8c-2.4-1.8-4.1-3.9-5.4-6.4s-2-5.2-2-8.5.7-5.9,2-8.5c1.4-2.5,3.3-4.7,5.8-6.6,2.4-1.8,5.3-3.2,8.7-4.2,3.3-1,7.1-1.5,11.1-1.5s10.3,1,14.4,3.1,7.3,4.7,9.6,8.1,3.4,7.3,3.4,11.9h-15.3c0-2.2-.4-4.1-1.3-5.8-.9-1.6-2.4-2.9-4.1-3.9-1.8-.9-4.1-1.4-6.8-1.4s-5,.4-6.6,1.2c-1.8.8-3.1,1.9-4,3.2s-1.3,2.8-1.3,4.5.3,2.4.9,3.4c.6,1,1.6,2,2.8,2.8,1.3.9,2.8,1.7,4.6,2.5s4,1.5,6.5,2.4c4,1.2,7.7,2.6,10.8,4.1,3.1,1.5,5.7,3.2,7.8,5.2s3.7,4.1,4.7,6.6c1.1,2.4,1.6,5.2,1.6,8.3s-.6,6.1-1.9,8.7-3.1,4.7-5.4,6.6c-2.4,1.8-5.2,3.1-8.6,4s-7.1,1.4-11.1,1.4-7.3-.5-10.9-1.5c-3.7-1-6.8-2.4-9.8-4.5s-5.2-4.5-7-7.6c-1.7-3.1-2.6-6.7-2.6-10.9h15.4c0,2.4.4,4.4,1.1,5.9s1.7,2.9,3.1,3.9,2.9,1.7,4.7,2.1,3.8.7,6,.7,4.8-.4,6.6-1.1,3.1-1.8,3.8-3.1,1.2-2.8,1.2-4.5h0Z"/>
      </g>
    </g>
    <g class="st1">
      <g>
        <path class="st2" d="M98.5,53.3c2.1-1,4-2.1,5.9-3.4,2.5-1.9,4.5-4.4,5.9-7.3s2.1-6.5,2.1-10.5-1.1-9.2-3.4-12.6-5.5-6-9.7-7.8c-4.2-1.7-9.3-2.6-15-2.6h-28.4v76.4h15.7v-28.3h12.5l14.4,28.3h16.9v-.7l-16.5-31.4h-.3ZM71.3,21.3h12.7c2.8,0,5.2.5,7,1.4s3.2,2.4,4.1,4.1c.9,1.8,1.4,3.9,1.4,6.4s-.5,4.4-1.4,6-2.4,3.1-4.1,4.1c-1.8,1-4.1,1.5-6.8,1.5h-12.8v-23.5h0Z"/>
        <path class="st2" d="M197.8,45.5v3.7c0,5.9-.8,11-2.4,15.7s-3.8,8.6-6.6,11.8-6.3,5.8-10.3,7.4c-3.9,1.7-8.4,2.5-13.2,2.5s-9.2-.9-13.1-2.5c-3.9-1.7-7.3-4.2-10.3-7.4-2.9-3.2-5.2-7.2-6.7-11.8-1.6-4.6-2.4-9.8-2.4-15.7v-3.7c0-5.9.8-11.1,2.4-15.7,1.6-4.6,3.8-8.5,6.6-11.8,2.9-3.2,6.4-5.8,10.3-7.4s8.4-2.5,13.1-2.5,9.2.9,13.2,2.5c3.9,1.7,7.3,4.2,10.3,7.4,2.9,3.2,5.2,7.2,6.7,11.8s2.4,9.8,2.4,15.7ZM182,49v-3.8c0-4-.4-7.7-1.1-10.7-.7-3.1-1.8-5.7-3.2-7.8s-3.2-3.7-5.2-4.7-4.5-1.6-7.1-1.6-5.1.5-7.1,1.6-3.8,2.6-5.2,4.7-2.5,4.6-3.2,7.8c-.7,3.1-1.1,6.6-1.1,10.7v3.8c0,4,.4,7.6,1.1,10.7s1.8,5.7,3.2,7.8,3.2,3.8,5.2,4.8c2,1.1,4.5,1.6,7.1,1.6s5.1-.5,7.1-1.6,3.8-2.7,5.2-4.8c1.4-2.1,2.4-4.7,3.2-7.8s1.1-6.6,1.1-10.7Z"/>
        <polygon class="st2" points="235.7 73.2 235.7 9 220 9 220 85.4 230.6 85.4 235.7 85.4 269.1 85.4 269.1 73.2 235.7 73.2"/>
        <path class="st2" d="M338.1,85.4h16.7l-28.5-76.5h-14.6l-28.3,76.4h16.7l5.2-16.2h27.5l5.2,16.2h0ZM309.4,56.9l9.7-29.5,9.7,29.5h-19.4Z"/>
        <path class="st2" d="M435,9v76.4h-15.7l-30.7-51.2v51.2h-15.7V9h15.7l30.8,51.3V9h15.7Z"/>
        <path class="st2" d="M515.2,30.6c-1.7-4.5-4.1-8.3-7.2-11.5-3.1-3.2-6.7-5.7-11-7.4s-8.9-2.6-14-2.6h-23.6v76.4h23.4c5.2,0,9.9-.9,14.3-2.6,4.2-1.7,8-4.2,11.1-7.3,3.1-3.2,5.4-7.1,7.2-11.5,1.7-4.4,2.5-9.4,2.5-14.9v-3.7c0-5.4-.8-10.4-2.5-14.9h-.2ZM501.8,49c0,5.2-.7,9.4-2.2,13-1.4,3.7-3.7,6.4-6.5,8.1-2.8,1.9-6.4,2.8-10.4,2.8h-7.7V21.3h7.9c3.1,0,5.8.5,8,1.5s4.4,2.5,5.9,4.5,2.8,4.5,3.7,7.4c.8,2.9,1.2,6.5,1.2,10.3v3.9h0Z"/>
        <path class="st2" d="M668.8,65.1c0-1.3-.2-2.5-.6-3.7s-1.1-2.1-2.2-3.1c-1.1-.9-2.5-1.8-4.5-2.7s-4.5-1.8-7.4-2.7c-3.4-1.1-6.6-2.4-9.6-3.8s-5.7-2.9-8-4.8c-2.4-1.8-4.1-3.9-5.4-6.4s-2-5.2-2-8.5.7-5.9,2-8.5c1.4-2.5,3.3-4.7,5.8-6.6,2.4-1.8,5.3-3.2,8.7-4.2,3.3-1,7.1-1.5,11.1-1.5s10.3,1,14.4,3.1,7.3,4.7,9.6,8.1,3.4,7.3,3.4,11.9h-15.3c0-2.2-.4-4.1-1.3-5.8-.9-1.6-2.4-2.9-4.1-3.9-1.8-.9-4.1-1.4-6.8-1.4s-5,.4-6.6,1.2c-1.8.8-3.1,1.9-4,3.2s-1.3,2.8-1.3,4.5.3,2.4.9,3.4c.6,1,1.6,2,2.8,2.8,1.3.9,2.8,1.7,4.6,2.5s4,1.5,6.5,2.4c4,1.2,7.7,2.6,10.8,4.1,3.1,1.5,5.7,3.2,7.8,5.2s3.7,4.1,4.7,6.6c1.1,2.4,1.6,5.2,1.6,8.3s-.6,6.1-1.9,8.7-3.1,4.7-5.4,6.6c-2.4,1.8-5.2,3.1-8.6,4s-7.1,1.4-11.1,1.4-7.3-.5-10.9-1.5c-3.7-1-6.8-2.4-9.8-4.5s-5.2-4.5-7-7.6c-1.7-3.1-2.6-6.7-2.6-10.9h15.4c0,2.4.4,4.4,1.1,5.9s1.7,2.9,3.1,3.9,2.9,1.7,4.7,2.1,3.8.7,6,.7,4.8-.4,6.6-1.1,3.1-1.8,3.8-3.1,1.2-2.8,1.2-4.5h0Z"/>
      </g>
    </g>
  </g>
</svg>