<?xml version="1.0" encoding="UTF-8"?>
<svg xmlns="http://www.w3.org/2000/svg" version="1.1" viewBox="0 0 739.2 94.8">
  <defs>
    <style>
      .cls-1 {
        fill: none;
      }

      .cls-2 {
        fill: #ff6c00;
      }

      .cls-3 {
        fill: #0b0b0b;
      }
    </style>
  </defs>
  <!-- Generator: Adobe Illustrator 28.7.1, SVG Export Plug-In . SVG Version: 1.2.0 Build 142)  -->
  <g>
    <g id="Layer_1">
      <path class="cls-2" d="M18.9,45.3H0v47.2h18.9v-32.7h15.4l16.8,32.7h21.4l-19-35.6c2.6-1,4.9-2.4,6.9-4.1,2-1.7,3.8-3.7,5.2-5.9.3-.5.6-1,.9-1.5H18.9Z"/>
      <path class="cls-2" d="M185.4,47.4c0,4.7-.6,9-1.7,12.8-1.1,3.8-2.7,7-4.8,9.7-2.1,2.7-4.6,4.8-7.6,6.2-3,1.5-6.3,2.2-9.9,2.2s-7.1-.7-10-2.2-5.5-3.5-7.6-6.2-3.7-5.9-4.8-9.7-1.7-8-1.7-12.8,0-1.4,0-2.1h-19.3c0,.7,0,1.4,0,2.1,0,7.3,1,13.9,3,19.8s4.9,10.8,8.7,14.9c3.8,4.1,8.3,7.2,13.7,9.4,5.4,2.2,11.4,3.3,18.1,3.3s12.7-1.1,18-3.3,9.9-5.3,13.7-9.4c3.8-4.1,6.6-9.1,8.6-14.9,2-5.8,3-12.5,3-19.8s0-1.4,0-2.1h-19.3c0,.7,0,1.4,0,2.1h0Z"/>
      <polygon class="cls-2" points="280.5 59.3 280.5 92.5 299.4 92.5 299.4 59.3 307.1 45.3 272.8 45.3 280.5 59.3"/>
      <path class="cls-2" d="M500.7,53.9l11.8,2.5c2.8.6,5.1,1.2,7.1,2,2,.7,3.6,1.5,4.8,2.5,1.2.9,2.2,2,2.8,3.1.6,1.2.9,2.5.9,3.9s-.4,3.3-1.2,4.7c-.8,1.4-2,2.6-3.5,3.7-1.5,1-3.2,1.8-5.3,2.4-2,.6-4.3.8-6.8.8s-5.1-.3-7.3-.8-4.1-1.4-5.8-2.4c-1.6-1-3-2.3-4-3.8-1-1.5-1.6-3.1-1.8-5h-18.2c.2,4.2,1.1,8,2.9,11.4,1.8,3.4,4.2,6.2,7.3,8.6s6.9,4.2,11.2,5.5,9.2,1.9,14.6,1.9,10.8-.7,15.2-2,8.3-3.3,11.5-5.8,5.6-5.6,7.3-9.2,2.5-7.7,2.5-12.2-.5-6.6-1.5-9.4-2.5-5.2-4.7-7.2c-1.3-1.3-2.9-2.5-4.7-3.6h-53.2c4.1,4.1,10.1,7,18,8.6h0Z"/>
      <rect class="cls-2" x="597.6" y="45.3" width="18.9" height="47.2"/>
      <rect class="cls-2" x="693.2" y="45.3" width="18.9" height="47.2"/>
      <path class="cls-1" d="M178.8,24.9c-2.1-2.7-4.6-4.7-7.6-6.2-3-1.4-6.3-2.2-9.9-2.2s-7,.7-9.9,2.2-5.5,3.5-7.6,6.2c-2.1,2.7-3.7,5.9-4.9,9.7-1,3.2-1.5,6.8-1.6,10.7h48.1c-.1-3.9-.7-7.5-1.6-10.7-1.1-3.8-2.7-7-4.8-9.7h0Z"/>
      <path class="cls-1" d="M50.5,31.5c0-2.1-.3-4-1.1-5.8-.7-1.7-1.7-3.2-3-4.4-1.3-1.2-2.9-2.1-4.8-2.8-1.9-.6-4-1-6.3-1h-16.4v27.7h16.6c4.8,0,8.5-1.2,11.1-3.6,2.6-2.4,3.9-5.8,3.9-10.2Z"/>
      <path class="cls-3" d="M18.9,17.6h16.4c2.3,0,4.5.3,6.3,1,1.9.6,3.5,1.6,4.8,2.8s2.3,2.7,3,4.4,1.1,3.7,1.1,5.8c0,4.4-1.3,7.8-3.9,10.2-2.6,2.4-6.3,3.6-11.1,3.6h31c1-1.8,1.7-3.7,2.3-5.8.7-2.7,1.1-5.4,1.1-8.3,0-4.5-.7-8.5-2.2-12.1-1.5-3.6-3.6-6.6-6.3-9.1s-6.1-4.4-10.1-5.8c-4-1.3-8.4-2-13.4-2H0v43h18.9v-27.8h0Z"/>
      <path class="cls-3" d="M138.9,34.6c1.1-3.8,2.8-7,4.9-9.7,2.1-2.7,4.6-4.7,7.6-6.2,3-1.4,6.3-2.2,9.9-2.2s7,.7,9.9,2.2,5.5,3.5,7.6,6.2c2.1,2.7,3.7,5.9,4.8,9.7,1,3.2,1.5,6.8,1.6,10.7h19.3c-.2-6.5-1.2-12.4-3-17.7-2-5.9-4.9-10.8-8.7-14.9-3.8-4.1-8.3-7.2-13.6-9.4C174,1.1,168,0,161.3,0s-12.6,1.1-18,3.3c-5.4,2.2-9.9,5.3-13.7,9.4-3.8,4.1-6.7,9.1-8.7,14.9-1.8,5.3-2.8,11.2-3,17.7h19.3c.1-3.9.7-7.5,1.6-10.7h0Z"/>
      <polygon class="cls-3" points="330.8 2.3 310.3 2.3 290.5 40.1 289.4 40.1 269.5 2.3 249.1 2.3 272.8 45.3 307.1 45.3 330.8 2.3"/>
      <path class="cls-3" d="M532.6,43.5c-3.3-1.5-7.2-2.7-11.7-3.7l-10.9-2.3c-5.3-1.1-9.1-2.5-11.4-4.2-2.3-1.7-3.5-4-3.5-6.8s.4-3.3,1.1-4.7c.8-1.4,1.8-2.6,3.2-3.6s3-1.7,4.9-2.2,4.1-.8,6.4-.8,4.4.3,6.3.8,3.6,1.4,5.1,2.4c1.4,1,2.6,2.3,3.5,3.8.9,1.5,1.5,3.1,1.7,4.9h17.8c-.1-4-1.1-7.7-2.8-11s-4.2-6.2-7.2-8.6c-3-2.4-6.7-4.3-10.8-5.6-4.2-1.3-8.7-2-13.7-2s-9.9.7-14.2,2c-4.2,1.3-7.9,3.2-10.9,5.7s-5.3,5.5-7,8.9c-1.6,3.5-2.5,7.3-2.5,11.6,0,7.1,2.2,12.8,6.5,17.1h53.2c-1-.6-2.2-1.2-3.4-1.8h0Z"/>
      <rect class="cls-3" x="597.6" y="2.3" width="18.9" height="43"/>
      <polygon class="cls-3" points="739.2 18.4 739.2 2.3 666.2 2.3 666.2 18.4 693.2 18.4 693.2 45.3 712.1 45.3 712.1 18.4 739.2 18.4"/>
    </g>
  </g>
</svg>