<?xml version="1.0" encoding="UTF-8"?>
<svg id="Layer_1" xmlns="http://www.w3.org/2000/svg" version="1.1" viewBox="0 0 2751.2 4645.3">
  <!-- Generator: Adobe Illustrator 29.1.0, SVG Export Plug-In . SVG Version: 2.1.0 Build 142)  -->
  <defs>
    <style>
      .st0 {
        fill: #ff6c00;
      }

      .st1 {
        fill: #f9f9f9;
      }

      .st2 {
        fill: #faa73c;
      }

      .st3 {
        fill: #f79234;
      }
    </style>
  </defs>
  <path class="st1" d="M1462.9,152l1067.3,2373.9c40.5,78.7,32.1,151.1,16.8,240.7-24.2,21.2-39,58.5-58.1,72.9-100.3,75.8-357.3-7.1-406.9,52.5-50.2,60.4-24.4,1330.2-40.6,1444.7-20.9,148.1-78.8,179.2-171.5,190.9-324,40.9-685.5-32.4-1013.6-.2-46.1,16.3-135.2-109.3-135.2-160v-1494.6h-392.3c-9.7,0-53.3-38.5-64.9-52.1-102.1-120.3-47.3-248,3.4-379.6C556,1690.8,970.7,966,1271.1,217c61.4-99.1,110.2-87.6,191.8-65ZM849.5,2639.1v1654h1041.3c-1.7-91.7,2.4-184.7,0-276.3v-1377.6h513.5l-299.6-680.2L1384.2,343c-23.6,0-42.6,40-55.9,65.6-96.1,184.8-203.9,464.2-294.3,668.1-118,266.3-253.7,581.2-370,839.7-61.6,137-116.2,281.2-176.5,416.1-44.2,98.7-115.2,193.2-151.6,306.5,160.9-22.1,357.3,30.5,513.5.2Z"/>
  <path class="st3" d="M849.5,2639.1c-156.2,30.3-352.6-22.3-513.5-.2,36.4-113.3,107.4-207.7,151.6-306.5,60.3-134.9,114.9-279.1,176.5-416.1,35-33.2,75.3,7.7,104.7.8,11.1-2.6,2.7-39.6,29.9-45,250.5-50.3,832-22.8,1100.1.5,29.1,2.5,44.1,34,58.7,37.2,27,5.9,71.4-29.3,104.7-14.9-1.7,69.7-9.8,117.5,42.8,64l299.6,680.2h-513.5v1377.6c-2-76.6-5.7-1175.6-13.9-1240.2-6.2-48.6-72.3-66.6-43.1-180.1l-920.9-.9c-24.3-10.4-52.7,41.4-63.4,43.5Z"/>
  <path class="st0" d="M664.1,1916.4c116.3-258.5,252-573.5,370-839.7,90.4-203.9,198.2-483.3,294.3-668.1,13.3-25.6,32.3-65.6,55.9-65.6l720.6,1615.9c-52.5,53.5-44.5,5.7-42.8-64-33.3-14.5-77.6,20.8-104.7,14.9-14.6-3.2-29.6-34.7-58.7-37.2-268.1-23.2-849.6-50.8-1100.1-.5-27.2,5.5-18.8,42.4-29.9,45-29.3,6.9-69.6-34-104.7-.8Z"/>
  <path class="st2" d="M849.5,2639.1c10.8-2.1,39.1-53.9,63.4-43.5l920.9.9c-29.2,113.5,36.9,131.4,43.1,180.1,8.2,64.6,11.9,1163.6,13.9,1240.2,2.4,91.6-1.7,184.6,0,276.3H849.5v-1654Z"/>
</svg>